CSLSans-Medium.ufo
<glyph name="dollar" format="2">
  <advance width="599"/>
  <unicode hex="0024"/>
  <outline>
    <contour>
      <point x="340" y="94" type="line"/>
      <point x="443" y="116"/>
      <point x="443" y="200" type="qcurve" smooth="yes"/>
      <point x="443" y="238"/>
      <point x="398" y="287"/>
      <point x="340" y="302" type="qcurve"/>
    </contour>
    <contour>
      <point x="268" y="605" type="line"/>
      <point x="168" y="591"/>
      <point x="168" y="514" type="qcurve" smooth="yes"/>
      <point x="168" y="472"/>
      <point x="217" y="428"/>
      <point x="268" y="415" type="qcurve"/>
    </contour>
    <contour>
      <point x="261" y="-82" type="line"/>
      <point x="261" y="4" type="line"/>
      <point x="126" y="16"/>
      <point x="43" y="117" type="qcurve"/>
      <point x="116" y="183" type="line"/>
      <point x="175" y="106"/>
      <point x="268" y="93" type="qcurve"/>
      <point x="268" y="317" type="line"/>
      <point x="161" y="340"/>
      <point x="64" y="433"/>
      <point x="64" y="509" type="qcurve" smooth="yes"/>
      <point x="64" y="589"/>
      <point x="169" y="683"/>
      <point x="261" y="693" type="qcurve"/>
      <point x="261" y="780" type="line"/>
      <point x="346" y="780" type="line"/>
      <point x="346" y="693" type="line"/>
      <point x="472" y="681"/>
      <point x="540" y="590" type="qcurve"/>
      <point x="466" y="529" type="line"/>
      <point x="424" y="589"/>
      <point x="340" y="604" type="qcurve"/>
      <point x="340" y="399" type="line"/>
      <point x="451" y="373"/>
      <point x="548" y="288"/>
      <point x="548" y="207" type="qcurve" smooth="yes"/>
      <point x="548" y="126"/>
      <point x="443" y="19"/>
      <point x="346" y="6" type="qcurve"/>
      <point x="346" y="-82" type="line"/>
    </contour>
  </outline>
</glyph>
<glyph name="period" format="2">
  <advance width="300"/>
  <unicode hex="002E"/>
  <outline>
    <contour>
      <point x="150" y="-12" type="qcurve" smooth="yes"/>
      <point x="113" y="-12"/>
      <point x="77" y="27"/>
      <point x="77" y="56" type="qcurve" smooth="yes"/>
      <point x="77" y="71" type="line" smooth="yes"/>
      <point x="77" y="100"/>
      <point x="113" y="139"/>
      <point x="150" y="139" type="qcurve" smooth="yes"/>
      <point x="187" y="139"/>
      <point x="223" y="100"/>
      <point x="223" y="71" type="qcurve" smooth="yes"/>
      <point x="223" y="56" type="line" smooth="yes"/>
      <point x="223" y="27"/>
      <point x="187" y="-12"/>
    </contour>
  </outline>
</glyph>
<glyph name="question" format="2">
  <advance width="487"/>
  <unicode hex="003F"/>
  <outline>
    <contour>
      <point x="223" y="-12" type="qcurve" smooth="yes"/>
      <point x="185" y="-12"/>
      <point x="150" y="25"/>
      <point x="150" y="54" type="qcurve" smooth="yes"/>
      <point x="150" y="71" type="line" smooth="yes"/>
      <point x="150" y="100"/>
      <point x="185" y="137"/>
      <point x="223" y="137" type="qcurve" smooth="yes"/>
      <point x="261" y="137"/>
      <point x="296" y="100"/>
      <point x="296" y="71" type="qcurve" smooth="yes"/>
      <point x="296" y="54" type="line" smooth="yes"/>
      <point x="296" y="25"/>
      <point x="261" y="-12"/>
    </contour>
    <contour>
      <point x="170" y="219" type="line"/>
      <point x="170" y="378" type="line"/>
      <point x="338" y="385"/>
      <point x="338" y="503" type="qcurve" smooth="yes"/>
      <point x="338" y="517" type="line" smooth="yes"/>
      <point x="338" y="563"/>
      <point x="282" y="614"/>
      <point x="235" y="614" type="qcurve" smooth="yes"/>
      <point x="185" y="614"/>
      <point x="125" y="557"/>
      <point x="114" y="511" type="qcurve"/>
      <point x="19" y="549" type="line"/>
      <point x="30" y="589"/>
      <point x="83" y="662"/>
      <point x="173" y="710"/>
      <point x="239" y="710" type="qcurve" smooth="yes"/>
      <point x="338" y="710"/>
      <point x="454" y="603"/>
      <point x="454" y="514" type="qcurve" smooth="yes"/>
      <point x="454" y="452"/>
      <point x="400" y="367"/>
      <point x="318" y="319"/>
      <point x="274" y="311" type="qcurve"/>
      <point x="274" y="219" type="line"/>
    </contour>
  </outline>
</glyph>
<glyph name="at" format="2">
  <advance width="896"/>
  <unicode hex="0040"/>
  <outline>
    <contour>
      <point x="445" y="151" type="qcurve" smooth="yes"/>
      <point x="487" y="151"/>
      <point x="533" y="197"/>
      <point x="533" y="233" type="qcurve" smooth="yes"/>
      <point x="533" y="353" type="line" smooth="yes"/>
      <point x="533" y="385"/>
      <point x="487" y="428"/>
      <point x="445" y="428" type="qcurve" smooth="yes"/>
      <point x="399" y="428"/>
      <point x="351" y="373"/>
      <point x="351" y="328" type="qcurve" smooth="yes"/>
      <point x="351" y="251" type="line" smooth="yes"/>
      <point x="351" y="206"/>
      <point x="399" y="151"/>
    </contour>
    <contour>
      <point x="453" y="-121" type="line" smooth="yes"/>
      <point x="277" y="-121"/>
      <point x="63" y="102"/>
      <point x="63" y="289" type="qcurve" smooth="yes"/>
      <point x="63" y="409"/>
      <point x="159" y="599"/>
      <point x="336" y="708"/>
      <point x="459" y="708" type="qcurve" smooth="yes"/>
      <point x="564" y="708"/>
      <point x="734" y="623"/>
      <point x="835" y="454"/>
      <point x="835" y="328" type="qcurve" smooth="yes"/>
      <point x="835" y="256"/>
      <point x="797" y="141"/>
      <point x="717" y="74"/>
      <point x="655" y="74" type="qcurve" smooth="yes"/>
      <point x="604" y="74"/>
      <point x="548" y="123"/>
      <point x="544" y="163" type="qcurve"/>
      <point x="539" y="163" type="line"/>
      <point x="507" y="74"/>
      <point x="419" y="74" type="qcurve" smooth="yes"/>
      <point x="349" y="74"/>
      <point x="254" y="185"/>
      <point x="254" y="289" type="qcurve" smooth="yes"/>
      <point x="254" y="361"/>
      <point x="299" y="457"/>
      <point x="374" y="504"/>
      <point x="419" y="504" type="qcurve" smooth="yes"/>
      <point x="503" y="504"/>
      <point x="528" y="427" type="qcurve"/>
      <point x="533" y="427" type="line"/>
      <point x="533" y="495" type="line"/>
      <point x="620" y="495" type="line"/>
      <point x="620" y="205" type="line" smooth="yes"/>
      <point x="620" y="172"/>
      <point x="645" y="146"/>
      <point x="670" y="146" type="qcurve" smooth="yes"/>
      <point x="712" y="146"/>
      <point x="757" y="233"/>
      <point x="757" y="314" type="qcurve" smooth="yes"/>
      <point x="757" y="353" type="line" smooth="yes"/>
      <point x="757" y="443"/>
      <point x="676" y="570"/>
      <point x="540" y="636"/>
      <point x="458" y="636" type="qcurve" smooth="yes"/>
      <point x="320" y="636"/>
      <point x="141" y="457"/>
      <point x="141" y="316" type="qcurve" smooth="yes"/>
      <point x="141" y="266" type="line" smooth="yes"/>
      <point x="141" y="128"/>
      <point x="313" y="-48"/>
      <point x="454" y="-48" type="qcurve" smooth="yes"/>
      <point x="676" y="-48" type="line"/>
      <point x="676" y="-121" type="line"/>
    </contour>
  </outline>
</glyph>
<glyph name="C" format="2">
  <advance width="634"/>
  <unicode hex="0043"/>
  <outline>
    <contour>
      <point x="348" y="-12" type="qcurve" smooth="yes"/>
      <point x="211" y="-12"/>
      <point x="55" y="173"/>
      <point x="55" y="349" type="qcurve" smooth="yes"/>
      <point x="55" y="530"/>
      <point x="216" y="710"/>
      <point x="348" y="710" type="qcurve" smooth="yes"/>
      <point x="526" y="710"/>
      <point x="597" y="552" type="qcurve"/>
      <point x="502" y="500" type="line"/>
      <point x="464" y="609"/>
      <point x="348" y="609" type="qcurve" smooth="yes"/>
      <point x="267" y="609"/>
      <point x="175" y="499"/>
      <point x="175" y="402" type="qcurve" smooth="yes"/>
      <point x="175" y="296" type="line" smooth="yes"/>
      <point x="175" y="199"/>
      <point x="267" y="89"/>
      <point x="348" y="89" type="qcurve" smooth="yes"/>
      <point x="411" y="89"/>
      <point x="490" y="153"/>
      <point x="509" y="205" type="qcurve"/>
      <point x="600" y="150" type="line"/>
      <point x="565" y="74"/>
      <point x="439" y="-12"/>
    </contour>
  </outline>
</glyph>
<glyph name="K" format="2">
  <advance width="660"/>
  <unicode hex="004B"/>
  <outline>
    <contour>
      <point x="507" y="0" type="line"/>
      <point x="295" y="326" type="line"/>
      <point x="199" y="216" type="line"/>
      <point x="199" y="0" type="line"/>
      <point x="86" y="0" type="line"/>
      <point x="86" y="698" type="line"/>
      <point x="199" y="698" type="line"/>
      <point x="199" y="344" type="line"/>
      <point x="203" y="344" type="line"/>
      <point x="300" y="467" type="line" smooth="yes"/>
      <point x="333" y="509"/>
      <point x="372" y="555" type="qcurve" smooth="yes"/>
      <point x="491" y="698" type="line"/>
      <point x="623" y="698" type="line"/>
      <point x="374" y="404" type="line"/>
      <point x="643" y="0" type="line"/>
    </contour>
  </outline>
</glyph>
<glyph name="v" format="2">
  <advance width="512"/>
  <unicode hex="0076"/>
  <outline>
    <contour>
      <point x="191" y="0" type="line"/>
      <point x="14" y="520" type="line"/>
      <point x="122" y="520" type="line"/>
      <point x="169" y="380" type="line" smooth="yes"/>
      <point x="192" y="311"/>
      <point x="206" y="265" type="qcurve" smooth="yes"/>
      <point x="254" y="101" type="line"/>
      <point x="260" y="101" type="line"/>
      <point x="308" y="265" type="line" smooth="yes"/>
      <point x="322" y="311"/>
      <point x="346" y="380" type="qcurve" smooth="yes"/>
      <point x="394" y="520" type="line"/>
      <point x="498" y="520" type="line"/>
      <point x="319" y="0" type="line"/>
    </contour>
  </outline>
</glyph>
<glyph name="exclamdown" format="2">
  <advance width="298"/>
  <unicode hex="00A1"/>
  <outline>
    <contour>
      <point x="91" y="-178" type="line"/>
      <point x="91" y="21" type="line"/>
      <point x="124" y="320" type="line"/>
      <point x="174" y="320" type="line"/>
      <point x="209" y="21" type="line"/>
      <point x="209" y="-178" type="line"/>
    </contour>
    <contour>
      <point x="149" y="383" type="qcurve" smooth="yes"/>
      <point x="111" y="383"/>
      <point x="76" y="420"/>
      <point x="76" y="449" type="qcurve" smooth="yes"/>
      <point x="76" y="466" type="line" smooth="yes"/>
      <point x="76" y="495"/>
      <point x="111" y="532"/>
      <point x="149" y="532" type="qcurve" smooth="yes"/>
      <point x="187" y="532"/>
      <point x="222" y="495"/>
      <point x="222" y="466" type="qcurve" smooth="yes"/>
      <point x="222" y="449" type="line" smooth="yes"/>
      <point x="222" y="420"/>
      <point x="187" y="383"/>
    </contour>
  </outline>
</glyph>
<glyph name="dieresis" format="2">
  <advance width="600"/>
  <unicode hex="00A8"/>
  <outline>
    <contour>
      <point x="400" y="610" type="qcurve" smooth="yes"/>
      <point x="338" y="610"/>
      <point x="338" y="663" type="qcurve" smooth="yes"/>
      <point x="338" y="681" type="line" smooth="yes"/>
      <point x="338" y="734"/>
      <point x="400" y="734" type="qcurve" smooth="yes"/>
      <point x="462" y="734"/>
      <point x="462" y="681" type="qcurve" smooth="yes"/>
      <point x="462" y="663" type="line" smooth="yes"/>
      <point x="462" y="610"/>
    </contour>
    <contour>
      <point x="200" y="610" type="qcurve" smooth="yes"/>
      <point x="138" y="610"/>
      <point x="138" y="663" type="qcurve" smooth="yes"/>
      <point x="138" y="681" type="line" smooth="yes"/>
      <point x="138" y="734"/>
      <point x="200" y="734" type="qcurve" smooth="yes"/>
      <point x="262" y="734"/>
      <point x="262" y="681" type="qcurve" smooth="yes"/>
      <point x="262" y="663" type="line" smooth="yes"/>
      <point x="262" y="610"/>
    </contour>
  </outline>
</glyph>
<glyph name="logicalnot" format="2">
  <advance width="616"/>
  <unicode hex="00AC"/>
  <outline>
    <contour>
      <point x="458" y="78" type="line"/>
      <point x="458" y="261" type="line"/>
      <point x="61" y="261" type="line"/>
      <point x="61" y="350" type="line"/>
      <point x="549" y="350" type="line"/>
      <point x="549" y="78" type="line"/>
    </contour>
  </outline>
</glyph>
<glyph name="degree" format="2">
  <advance width="470"/>
  <unicode hex="00B0"/>
  <outline>
    <contour>
      <point x="235" y="430" type="qcurve" smooth="yes"/>
      <point x="278" y="430"/>
      <point x="327" y="488"/>
      <point x="327" y="531" type="qcurve" smooth="yes"/>
      <point x="327" y="574"/>
      <point x="278" y="632"/>
      <point x="235" y="632" type="qcurve" smooth="yes"/>
      <point x="192" y="632"/>
      <point x="143" y="574"/>
      <point x="143" y="531" type="qcurve" smooth="yes"/>
      <point x="143" y="488"/>
      <point x="192" y="430"/>
    </contour>
    <contour>
      <point x="235" y="352" type="qcurve" smooth="yes"/>
      <point x="158" y="352"/>
      <point x="59" y="457"/>
      <point x="59" y="531" type="qcurve" smooth="yes"/>
      <point x="59" y="605"/>
      <point x="158" y="710"/>
      <point x="235" y="710" type="qcurve" smooth="yes"/>
      <point x="309" y="710"/>
      <point x="411" y="609"/>
      <point x="411" y="531" type="qcurve" smooth="yes"/>
      <point x="411" y="453"/>
      <point x="309" y="352"/>
    </contour>
  </outline>
</glyph>
<glyph name="Icircumflex" format="2">
  <advance width="285"/>
  <unicode hex="00CE"/>
  <outline>
    <contour>
      <point x="86" y="0" type="line"/>
      <point x="86" y="698" type="line"/>
      <point x="199" y="698" type="line"/>
      <point x="199" y="0" type="line"/>
    </contour>
    <contour>
      <point x="143" y="868" type="line"/>
      <point x="24" y="752" type="line"/>
      <point x="-32" y="794" type="line"/>
      <point x="88" y="944" type="line"/>
      <point x="198" y="944" type="line"/>
      <point x="318" y="794" type="line"/>
      <point x="262" y="752" type="line"/>
    </contour>
  </outline>
</glyph>
<glyph name="Ugrave" format="2">
  <advance width="686"/>
  <unicode hex="00D9"/>
  <outline>
    <contour>
      <point x="343" y="-12" type="qcurve" smooth="yes"/>
      <point x="200" y="-12"/>
      <point x="82" y="133"/>
      <point x="82" y="286" type="qcurve" smooth="yes"/>
      <point x="82" y="698" type="line"/>
      <point x="193" y="698" type="line"/>
      <point x="193" y="268" type="line" smooth="yes"/>
      <point x="193" y="179"/>
      <point x="261" y="89"/>
      <point x="343" y="89" type="qcurve" smooth="yes"/>
      <point x="425" y="89"/>
      <point x="493" y="179"/>
      <point x="493" y="268" type="qcurve" smooth="yes"/>
      <point x="493" y="698" type="line"/>
      <point x="604" y="698" type="line"/>
      <point x="604" y="286" type="line" smooth="yes"/>
      <point x="604" y="133"/>
      <point x="486" y="-12"/>
    </contour>
    <contour>
      <point x="214" y="915" type="line"/>
      <point x="309" y="961" type="line"/>
      <point x="400" y="781" type="line"/>
      <point x="332" y="749" type="line"/>
    </contour>
  </outline>
</glyph>
<glyph name="ae" format="2">
  <advance width="865"/>
  <unicode hex="00E6"/>
  <outline>
    <contour>
      <point x="241" y="71" type="qcurve" smooth="yes"/>
      <point x="289" y="71"/>
      <point x="356" y="116"/>
      <point x="356" y="154" type="qcurve" smooth="yes"/>
      <point x="356" y="232" type="line"/>
      <point x="264" y="232" type="line"/>
      <point x="151" y="230"/>
      <point x="151" y="161" type="qcurve" smooth="yes"/>
      <point x="151" y="143" type="line"/>
      <point x="156" y="71"/>
    </contour>
    <contour>
      <point x="707" y="314" type="line" smooth="yes"/>
      <point x="707" y="374"/>
      <point x="645" y="447"/>
      <point x="591" y="447" type="qcurve" smooth="yes"/>
      <point x="536" y="447"/>
      <point x="465" y="371"/>
      <point x="465" y="304" type="qcurve"/>
      <point x="707" y="304" type="line"/>
    </contour>
    <contour>
      <point x="599" y="-12" type="qcurve" smooth="yes"/>
      <point x="545" y="-12"/>
      <point x="463" y="23"/>
      <point x="411" y="73"/>
      <point x="402" y="98" type="qcurve"/>
      <point x="396" y="98" type="line"/>
      <point x="389" y="73"/>
      <point x="343" y="23"/>
      <point x="264" y="-12"/>
      <point x="208" y="-12" type="qcurve" smooth="yes"/>
      <point x="129" y="-12"/>
      <point x="40" y="74"/>
      <point x="40" y="143" type="qcurve" smooth="yes"/>
      <point x="40" y="222"/>
      <point x="156" y="304"/>
      <point x="262" y="304" type="qcurve" smooth="yes"/>
      <point x="356" y="304" type="line"/>
      <point x="356" y="343" type="line" smooth="yes"/>
      <point x="356" y="443"/>
      <point x="250" y="443" type="qcurve" smooth="yes"/>
      <point x="202" y="443"/>
      <point x="145" y="404"/>
      <point x="125" y="373" type="qcurve"/>
      <point x="60" y="431" type="line"/>
      <point x="118" y="532"/>
      <point x="256" y="532" type="qcurve" smooth="yes"/>
      <point x="304" y="532"/>
      <point x="364" y="503"/>
      <point x="401" y="459"/>
      <point x="412" y="434" type="qcurve"/>
      <point x="418" y="434" type="line"/>
      <point x="436" y="473"/>
      <point x="529" y="532"/>
      <point x="597" y="532" type="qcurve" smooth="yes"/>
      <point x="675" y="532"/>
      <point x="775" y="460"/>
      <point x="822" y="342"/>
      <point x="822" y="273" type="qcurve" smooth="yes"/>
      <point x="822" y="232" type="line"/>
      <point x="465" y="232" type="line"/>
      <point x="465" y="215" type="line" smooth="yes"/>
      <point x="465" y="155"/>
      <point x="538" y="78"/>
      <point x="604" y="78" type="qcurve" smooth="yes"/>
      <point x="695" y="78"/>
      <point x="740" y="155" type="qcurve"/>
      <point x="804" y="93" type="line"/>
      <point x="774" y="44"/>
      <point x="668" y="-12"/>
    </contour>
  </outline>
</glyph>
<glyph name="icircumflex" format="2">
  <advance width="265"/>
  <unicode hex="00EE"/>
  <outline>
    <contour>
      <point x="78" y="0" type="line"/>
      <point x="78" y="520" type="line"/>
      <point x="187" y="520" type="line"/>
      <point x="187" y="0" type="line"/>
    </contour>
    <contour>
      <point x="134" y="702" type="line"/>
      <point x="15" y="585" type="line"/>
      <point x="-41" y="628" type="line"/>
      <point x="79" y="778" type="line"/>
      <point x="189" y="778" type="line"/>
      <point x="309" y="628" type="line"/>
      <point x="253" y="585" type="line"/>
    </contour>
  </outline>
</glyph>
<glyph name="Aogonek" format="2">
  <advance width="662"/>
  <unicode hex="0104"/>
  <outline>
    <contour>
      <point x="331" y="594" type="line"/>
      <point x="326" y="594" type="line"/>
      <point x="225" y="286" type="line"/>
      <point x="431" y="286" type="line"/>
    </contour>
    <contour>
      <point x="562" y="-209" type="qcurve" smooth="yes"/>
      <point x="517" y="-209"/>
      <point x="454" y="-171"/>
      <point x="454" y="-129" type="qcurve" smooth="yes"/>
      <point x="454" y="-89"/>
      <point x="515" y="-31"/>
      <point x="563" y="-4" type="qcurve"/>
      <point x="562" y="0" type="line"/>
      <point x="522" y="0" type="line"/>
      <point x="459" y="189" type="line"/>
      <point x="198" y="189" type="line"/>
      <point x="137" y="0" type="line"/>
      <point x="22" y="0" type="line"/>
      <point x="260" y="698" type="line"/>
      <point x="402" y="698" type="line"/>
      <point x="640" y="0" type="line"/>
      <point x="574" y="-49"/>
      <point x="534" y="-98"/>
      <point x="534" y="-115" type="qcurve" smooth="yes"/>
      <point x="534" y="-147"/>
      <point x="568" y="-147" type="qcurve" smooth="yes"/>
      <point x="600" y="-147"/>
      <point x="619" y="-121" type="qcurve"/>
      <point x="664" y="-165" type="line"/>
      <point x="642" y="-209"/>
    </contour>
  </outline>
</glyph>
<glyph name="ccircumflex" format="2">
  <advance width="510"/>
  <unicode hex="0109"/>
  <outline>
    <contour>
      <point x="279" y="-12" type="qcurve" smooth="yes"/>
      <point x="172" y="-12"/>
      <point x="43" y="129"/>
      <point x="43" y="260" type="qcurve" smooth="yes"/>
      <point x="43" y="340"/>
      <point x="96" y="462"/>
      <point x="201" y="532"/>
      <point x="279" y="532" type="qcurve" smooth="yes"/>
      <point x="357" y="532"/>
      <point x="457" y="463"/>
      <point x="480" y="404" type="qcurve"/>
      <point x="390" y="362" type="line"/>
      <point x="366" y="441"/>
      <point x="279" y="441" type="qcurve" smooth="yes"/>
      <point x="219" y="441"/>
      <point x="158" y="366"/>
      <point x="158" y="306" type="qcurve" smooth="yes"/>
      <point x="158" y="213" type="line" smooth="yes"/>
      <point x="158" y="153"/>
      <point x="219" y="78"/>
      <point x="279" y="78" type="qcurve" smooth="yes"/>
      <point x="327" y="78"/>
      <point x="384" y="125"/>
      <point x="401" y="164" type="qcurve"/>
      <point x="484" y="120" type="line"/>
      <point x="429" y="-12"/>
    </contour>
    <contour>
      <point x="277" y="702" type="line"/>
      <point x="158" y="585" type="line"/>
      <point x="102" y="628" type="line"/>
      <point x="222" y="778" type="line"/>
      <point x="332" y="778" type="line"/>
      <point x="452" y="628" type="line"/>
      <point x="396" y="585" type="line"/>
    </contour>
  </outline>
</glyph>
<glyph name="Emacron" format="2">
  <advance width="593"/>
  <unicode hex="0112"/>
  <outline>
    <contour>
      <point x="86" y="0" type="line"/>
      <point x="86" y="698" type="line"/>
      <point x="533" y="698" type="line"/>
      <point x="533" y="598" type="line"/>
      <point x="199" y="598" type="line"/>
      <point x="199" y="404" type="line"/>
      <point x="502" y="404" type="line"/>
      <point x="502" y="304" type="line"/>
      <point x="199" y="304" type="line"/>
      <point x="199" y="100" type="line"/>
      <point x="533" y="100" type="line"/>
      <point x="533" y="0" type="line"/>
    </contour>
    <contour>
      <point x="163" y="798" type="line"/>
      <point x="163" y="881" type="line"/>
      <point x="455" y="881" type="line"/>
      <point x="455" y="798" type="line"/>
    </contour>
  </outline>
</glyph>
<glyph name="Edotaccent" format="2">
  <advance width="593"/>
  <unicode hex="0116"/>
  <outline>
    <contour>
      <point x="86" y="0" type="line"/>
      <point x="86" y="698" type="line"/>
      <point x="533" y="698" type="line"/>
      <point x="533" y="598" type="line"/>
      <point x="199" y="598" type="line"/>
      <point x="199" y="404" type="line"/>
      <point x="502" y="404" type="line"/>
      <point x="502" y="304" type="line"/>
      <point x="199" y="304" type="line"/>
      <point x="199" y="100" type="line"/>
      <point x="533" y="100" type="line"/>
      <point x="533" y="0" type="line"/>
    </contour>
    <contour>
      <point x="309" y="768" type="qcurve" smooth="yes"/>
      <point x="239" y="768"/>
      <point x="239" y="828" type="qcurve" smooth="yes"/>
      <point x="239" y="849" type="line" smooth="yes"/>
      <point x="239" y="909"/>
      <point x="309" y="909" type="qcurve" smooth="yes"/>
      <point x="379" y="909"/>
      <point x="379" y="849" type="qcurve" smooth="yes"/>
      <point x="379" y="828" type="line" smooth="yes"/>
      <point x="379" y="768"/>
    </contour>
  </outline>
</glyph>
<glyph name="Itilde" format="2">
  <advance width="285"/>
  <unicode hex="0128"/>
  <outline>
    <contour>
      <point x="86" y="0" type="line"/>
      <point x="86" y="698" type="line"/>
      <point x="199" y="698" type="line"/>
      <point x="199" y="0" type="line"/>
    </contour>
    <contour>
      <point x="217" y="773" type="qcurve" smooth="yes"/>
      <point x="195" y="773"/>
      <point x="162" y="785"/>
      <point x="147" y="793" type="qcurve"/>
      <point x="139" y="797" type="line"/>
      <point x="97" y="820"/>
      <point x="65" y="820" type="qcurve" smooth="yes"/>
      <point x="48" y="820"/>
      <point x="22" y="807"/>
      <point x="7" y="794" type="qcurve"/>
      <point x="-34" y="846" type="line"/>
      <point x="2" y="904"/>
      <point x="69" y="904" type="qcurve" smooth="yes"/>
      <point x="91" y="904"/>
      <point x="124" y="892"/>
      <point x="139" y="884" type="qcurve"/>
      <point x="147" y="880" type="line"/>
      <point x="190" y="857"/>
      <point x="221" y="857" type="qcurve" smooth="yes"/>
      <point x="238" y="857"/>
      <point x="264" y="870"/>
      <point x="279" y="883" type="qcurve"/>
      <point x="320" y="831" type="line"/>
      <point x="284" y="773"/>
    </contour>
  </outline>
</glyph>
<glyph name="imacron" format="2">
  <advance width="265"/>
  <unicode hex="012B"/>
  <outline>
    <contour>
      <point x="78" y="0" type="line"/>
      <point x="78" y="520" type="line"/>
      <point x="187" y="520" type="line"/>
      <point x="187" y="0" type="line"/>
    </contour>
    <contour>
      <point x="-12" y="631" type="line"/>
      <point x="-12" y="714" type="line"/>
      <point x="280" y="714" type="line"/>
      <point x="280" y="631" type="line"/>
    </contour>
  </outline>
</glyph>
<glyph name="Iogonek" format="2">
  <advance width="285"/>
  <unicode hex="012E"/>
  <outline>
    <contour>
      <point x="122" y="-209" type="qcurve" smooth="yes"/>
      <point x="78" y="-209"/>
      <point x="15" y="-171"/>
      <point x="15" y="-129" type="qcurve" smooth="yes"/>
      <point x="15" y="-90"/>
      <point x="72" y="-33"/>
      <point x="123" y="-5" type="qcurve"/>
      <point x="122" y="0" type="line"/>
      <point x="86" y="0" type="line"/>
      <point x="86" y="698" type="line"/>
      <point x="199" y="698" type="line"/>
      <point x="199" y="0" type="line"/>
      <point x="135" y="-49"/>
      <point x="94" y="-96"/>
      <point x="94" y="-115" type="qcurve" smooth="yes"/>
      <point x="94" y="-147"/>
      <point x="128" y="-147" type="qcurve" smooth="yes"/>
      <point x="160" y="-147"/>
      <point x="179" y="-121" type="qcurve"/>
      <point x="225" y="-165" type="line"/>
      <point x="202" y="-209"/>
    </contour>
  </outline>
</glyph>
<glyph name="Ldot" format="2">
  <advance width="513"/>
  <unicode hex="013F"/>
  <outline>
    <contour>
      <point x="398" y="306" type="qcurve" smooth="yes"/>
      <point x="331" y="306"/>
      <point x="331" y="363" type="qcurve" smooth="yes"/>
      <point x="331" y="381" type="line" smooth="yes"/>
      <point x="331" y="438"/>
      <point x="398" y="438" type="qcurve" smooth="yes"/>
      <point x="465" y="438"/>
      <point x="465" y="381" type="qcurve" smooth="yes"/>
      <point x="465" y="363" type="line" smooth="yes"/>
      <point x="465" y="306"/>
    </contour>
    <contour>
      <point x="86" y="0" type="line"/>
      <point x="86" y="698" type="line"/>
      <point x="199" y="698" type="line"/>
      <point x="199" y="100" type="line"/>
      <point x="483" y="100" type="line"/>
      <point x="483" y="0" type="line"/>
    </contour>
  </outline>
</glyph>
<glyph name="ldot" format="2">
  <advance width="396"/>
  <unicode hex="0140"/>
  <outline>
    <contour>
      <point x="330" y="263" type="qcurve" smooth="yes"/>
      <point x="263" y="263"/>
      <point x="263" y="320" type="qcurve" smooth="yes"/>
      <point x="263" y="338" type="line" smooth="yes"/>
      <point x="263" y="395"/>
      <point x="330" y="395" type="qcurve" smooth="yes"/>
      <point x="397" y="395"/>
      <point x="397" y="338" type="qcurve" smooth="yes"/>
      <point x="397" y="320" type="line" smooth="yes"/>
      <point x="397" y="263"/>
    </contour>
    <contour>
      <point x="189" y="0" type="line" smooth="yes"/>
      <point x="133" y="0"/>
      <point x="78" y="57"/>
      <point x="78" y="108" type="qcurve" smooth="yes"/>
      <point x="78" y="740" type="line"/>
      <point x="187" y="740" type="line"/>
      <point x="187" y="89" type="line"/>
      <point x="259" y="89" type="line"/>
      <point x="259" y="0" type="line"/>
    </contour>
  </outline>
</glyph>
<glyph name="napostrophe" format="2">
  <advance width="844"/>
  <unicode hex="0149"/>
  <outline>
    <contour>
      <point x="662" y="0" type="line"/>
      <point x="662" y="316" type="line" smooth="yes"/>
      <point x="662" y="438"/>
      <point x="564" y="438" type="qcurve" smooth="yes"/>
      <point x="522" y="438"/>
      <point x="451" y="395"/>
      <point x="451" y="348" type="qcurve" smooth="yes"/>
      <point x="451" y="0" type="line"/>
      <point x="342" y="0" type="line"/>
      <point x="342" y="520" type="line"/>
      <point x="451" y="520" type="line"/>
      <point x="451" y="434" type="line"/>
      <point x="456" y="434" type="line"/>
      <point x="494" y="532"/>
      <point x="602" y="532" type="qcurve" smooth="yes"/>
      <point x="682" y="532"/>
      <point x="771" y="427"/>
      <point x="771" y="330" type="qcurve" smooth="yes"/>
      <point x="771" y="0" type="line"/>
    </contour>
    <contour>
      <point x="41" y="479" type="line"/>
      <point x="104" y="538"/>
      <point x="124" y="605" type="qcurve"/>
      <point x="73" y="616"/>
      <point x="73" y="667" type="qcurve" smooth="yes"/>
      <point x="73" y="685" type="line" smooth="yes"/>
      <point x="73" y="750"/>
      <point x="145" y="750" type="qcurve" smooth="yes"/>
      <point x="217" y="750"/>
      <point x="217" y="685" type="qcurve" smooth="yes"/>
      <point x="217" y="668" type="line" smooth="yes"/>
      <point x="217" y="619"/>
      <point x="162" y="515"/>
      <point x="119" y="479" type="qcurve"/>
    </contour>
  </outline>
</glyph>
<glyph name="ohungarumlaut" format="2">
  <advance width="564"/>
  <unicode hex="0151"/>
  <outline>
    <contour>
      <point x="282" y="78" type="qcurve" smooth="yes"/>
      <point x="338" y="78"/>
      <point x="406" y="147"/>
      <point x="406" y="216" type="qcurve" smooth="yes"/>
      <point x="406" y="304" type="line" smooth="yes"/>
      <point x="406" y="373"/>
      <point x="338" y="442"/>
      <point x="282" y="442" type="qcurve" smooth="yes"/>
      <point x="226" y="442"/>
      <point x="158" y="373"/>
      <point x="158" y="304" type="qcurve" smooth="yes"/>
      <point x="158" y="216" type="line" smooth="yes"/>
      <point x="158" y="147"/>
      <point x="226" y="78"/>
    </contour>
    <contour>
      <point x="282" y="-12" type="qcurve" smooth="yes"/>
      <point x="170" y="-12"/>
      <point x="43" y="140"/>
      <point x="43" y="260" type="qcurve" smooth="yes"/>
      <point x="43" y="388"/>
      <point x="176" y="532"/>
      <point x="282" y="532" type="qcurve" smooth="yes"/>
      <point x="388" y="532"/>
      <point x="521" y="388"/>
      <point x="521" y="260" type="qcurve" smooth="yes"/>
      <point x="521" y="140"/>
      <point x="394" y="-12"/>
    </contour>
    <contour>
      <point x="140" y="612" type="line"/>
      <point x="231" y="793" type="line"/>
      <point x="320" y="749" type="line"/>
      <point x="202" y="583" type="line"/>
    </contour>
    <contour>
      <point x="319" y="612" type="line"/>
      <point x="410" y="793" type="line"/>
      <point x="499" y="749" type="line"/>
      <point x="381" y="583" type="line"/>
    </contour>
  </outline>
</glyph>
<glyph name="oe" format="2">
  <advance width="921"/>
  <unicode hex="0153"/>
  <outline>
    <contour>
      <point x="282" y="78" type="qcurve" smooth="yes"/>
      <point x="338" y="78"/>
      <point x="406" y="147"/>
      <point x="406" y="216" type="qcurve" smooth="yes"/>
      <point x="406" y="304" type="line" smooth="yes"/>
      <point x="406" y="373"/>
      <point x="338" y="442"/>
      <point x="282" y="442" type="qcurve" smooth="yes"/>
      <point x="226" y="442"/>
      <point x="158" y="373"/>
      <point x="158" y="304" type="qcurve" smooth="yes"/>
      <point x="158" y="216" type="line" smooth="yes"/>
      <point x="158" y="147"/>
      <point x="226" y="78"/>
    </contour>
    <contour>
      <point x="763" y="314" type="line" smooth="yes"/>
      <point x="763" y="374"/>
      <point x="701" y="447"/>
      <point x="647" y="447" type="qcurve" smooth="yes"/>
      <point x="592" y="447"/>
      <point x="521" y="371"/>
      <point x="521" y="304" type="qcurve"/>
      <point x="763" y="304" type="line"/>
    </contour>
    <contour>
      <point x="653" y="-12" type="qcurve" smooth="yes"/>
      <point x="581" y="-12"/>
      <point x="486" y="43"/>
      <point x="466" y="85" type="qcurve"/>
      <point x="460" y="85" type="line"/>
      <point x="438" y="42"/>
      <point x="346" y="-12"/>
      <point x="282" y="-12" type="qcurve" smooth="yes"/>
      <point x="170" y="-12"/>
      <point x="43" y="140"/>
      <point x="43" y="260" type="qcurve" smooth="yes"/>
      <point x="43" y="388"/>
      <point x="176" y="532"/>
      <point x="282" y="532" type="qcurve" smooth="yes"/>
      <point x="407" y="532"/>
      <point x="460" y="434" type="qcurve"/>
      <point x="466" y="434" type="line"/>
      <point x="516" y="532"/>
      <point x="648" y="532" type="qcurve" smooth="yes"/>
      <point x="751" y="532"/>
      <point x="878" y="394"/>
      <point x="878" y="273" type="qcurve" smooth="yes"/>
      <point x="878" y="232" type="line"/>
      <point x="521" y="232" type="line"/>
      <point x="521" y="215" type="line" smooth="yes"/>
      <point x="521" y="155"/>
      <point x="592" y="78"/>
      <point x="660" y="78" type="qcurve" smooth="yes"/>
      <point x="748" y="78"/>
      <point x="797" y="156" type="qcurve"/>
      <point x="861" y="93" type="line"/>
      <point x="831" y="44"/>
      <point x="725" y="-12"/>
    </contour>
  </outline>
</glyph>
<glyph name="Rcaron" format="2">
  <advance width="655"/>
  <unicode hex="0158"/>
  <outline>
    <contour>
      <point x="379" y="377" type="line"/>
      <point x="470" y="380"/>
      <point x="470" y="464" type="qcurve" smooth="yes"/>
      <point x="470" y="512" type="line" smooth="yes"/>
      <point x="470" y="554"/>
      <point x="422" y="599"/>
      <point x="379" y="599" type="qcurve" smooth="yes"/>
      <point x="199" y="599" type="line"/>
      <point x="199" y="377" type="line"/>
    </contour>
    <contour>
      <point x="478" y="0" type="line"/>
      <point x="338" y="282" type="line"/>
      <point x="199" y="282" type="line"/>
      <point x="199" y="0" type="line"/>
      <point x="86" y="0" type="line"/>
      <point x="86" y="698" type="line"/>
      <point x="387" y="698" type="line" smooth="yes"/>
      <point x="481" y="698"/>
      <point x="589" y="585"/>
      <point x="589" y="488" type="qcurve" smooth="yes"/>
      <point x="589" y="338"/>
      <point x="453" y="294" type="qcurve"/>
      <point x="604" y="0" type="line"/>
    </contour>
    <contour>
      <point x="259" y="760" type="line"/>
      <point x="139" y="910" type="line"/>
      <point x="195" y="952" type="line"/>
      <point x="314" y="836" type="line"/>
      <point x="433" y="952" type="line"/>
      <point x="489" y="910" type="line"/>
      <point x="369" y="760" type="line"/>
    </contour>
  </outline>
</glyph>
<glyph name="ubreve" format="2">
  <advance width="580"/>
  <unicode hex="016D"/>
  <outline>
    <contour>
      <point x="243" y="-12" type="qcurve" smooth="yes"/>
      <point x="162" y="-12"/>
      <point x="73" y="92"/>
      <point x="73" y="189" type="qcurve" smooth="yes"/>
      <point x="73" y="520" type="line"/>
      <point x="182" y="520" type="line"/>
      <point x="182" y="203" type="line" smooth="yes"/>
      <point x="182" y="82"/>
      <point x="282" y="82" type="qcurve" smooth="yes"/>
      <point x="324" y="82"/>
      <point x="393" y="126"/>
      <point x="393" y="172" type="qcurve" smooth="yes"/>
      <point x="393" y="520" type="line"/>
      <point x="502" y="520" type="line"/>
      <point x="502" y="0" type="line"/>
      <point x="393" y="0" type="line"/>
      <point x="393" y="86" type="line"/>
      <point x="389" y="86" type="line"/>
      <point x="357" y="-12"/>
    </contour>
    <contour>
      <point x="288" y="589" type="qcurve" smooth="yes"/>
      <point x="232" y="589"/>
      <point x="167" y="635"/>
      <point x="130" y="701"/>
      <point x="120" y="733" type="qcurve"/>
      <point x="180" y="763" type="line"/>
      <point x="201" y="730" type="line"/>
      <point x="217" y="702"/>
      <point x="255" y="669"/>
      <point x="288" y="669" type="qcurve" smooth="yes"/>
      <point x="321" y="669"/>
      <point x="359" y="702"/>
      <point x="375" y="730" type="qcurve"/>
      <point x="396" y="763" type="line"/>
      <point x="456" y="733" type="line"/>
      <point x="446" y="701"/>
      <point x="409" y="635"/>
      <point x="344" y="589"/>
    </contour>
  </outline>
</glyph>
<glyph name="Aringacute" format="2">
  <advance width="662"/>
  <unicode hex="01FA"/>
  <outline>
    <contour>
      <point x="331" y="594" type="line"/>
      <point x="326" y="594" type="line"/>
      <point x="225" y="286" type="line"/>
      <point x="431" y="286" type="line"/>
    </contour>
    <contour>
      <point x="330" y="789" type="qcurve"/>
      <point x="387" y="790"/>
      <point x="387" y="839" type="qcurve" smooth="yes"/>
      <point x="387" y="857" type="line"/>
      <point x="384" y="907"/>
      <point x="330" y="907" type="qcurve" smooth="yes"/>
      <point x="273" y="907"/>
      <point x="273" y="857" type="qcurve" smooth="yes"/>
      <point x="273" y="839" type="line"/>
      <point x="276" y="789"/>
    </contour>
    <contour>
      <point x="522" y="0" type="line"/>
      <point x="459" y="189" type="line"/>
      <point x="198" y="189" type="line"/>
      <point x="137" y="0" type="line"/>
      <point x="22" y="0" type="line"/>
      <point x="260" y="698" type="line"/>
      <point x="402" y="698" type="line"/>
      <point x="640" y="0" type="line"/>
    </contour>
    <contour>
      <point x="330" y="731" type="qcurve" smooth="yes"/>
      <point x="274" y="731"/>
      <point x="199" y="794"/>
      <point x="199" y="848" type="qcurve" smooth="yes"/>
      <point x="199" y="902"/>
      <point x="237" y="934" type="qcurve" smooth="yes"/>
      <point x="264" y="957"/>
      <point x="302" y="963" type="qcurve"/>
      <point x="382" y="1057" type="line"/>
      <point x="454" y="1008" type="line"/>
      <point x="390" y="954" type="line"/>
      <point x="408" y="946"/>
      <point x="424" y="934" type="qcurve"/>
      <point x="461" y="902"/>
      <point x="461" y="848" type="qcurve" smooth="yes"/>
      <point x="461" y="794"/>
      <point x="386" y="731"/>
    </contour>
  </outline>
</glyph>
<glyph name="caroncomb" format="2">
  <unicode hex="030C"/>
  <outline>
    <contour>
      <point x="-54" y="594" type="line"/>
      <point x="-174" y="744" type="line"/>
      <point x="-118" y="786" type="line"/>
      <point x="1" y="670" type="line"/>
      <point x="120" y="786" type="line"/>
      <point x="176" y="744" type="line"/>
      <point x="56" y="594" type="line"/>
    </contour>
  </outline>
</glyph>
<glyph name="Kappa" format="2">
  <advance width="660"/>
  <unicode hex="039A"/>
  <outline>
    <contour>
      <point x="643" y="0" type="line"/>
      <point x="507" y="0" type="line"/>
      <point x="295" y="326" type="line"/>
      <point x="199" y="216" type="line"/>
      <point x="199" y="0" type="line"/>
      <point x="86" y="0" type="line"/>
      <point x="86" y="698" type="line"/>
      <point x="199" y="698" type="line"/>
      <point x="199" y="344" type="line"/>
      <point x="203" y="344" type="line"/>
      <point x="273" y="437"/>
      <point x="372" y="555" type="qcurve" smooth="yes"/>
      <point x="491" y="698" type="line"/>
      <point x="623" y="698" type="line"/>
      <point x="374" y="404" type="line"/>
    </contour>
  </outline>
</glyph>
<glyph name="Sigma" format="2">
  <advance width="581"/>
  <unicode hex="03A3"/>
  <outline>
    <contour>
      <point x="523" y="0" type="line"/>
      <point x="41" y="0" type="line"/>
      <point x="41" y="93" type="line"/>
      <point x="282" y="351" type="line"/>
      <point x="50" y="605" type="line"/>
      <point x="50" y="698" type="line"/>
      <point x="523" y="698" type="line"/>
      <point x="523" y="607" type="line"/>
      <point x="175" y="607" type="line"/>
      <point x="406" y="354" type="line"/>
      <point x="161" y="91" type="line"/>
      <point x="523" y="91" type="line"/>
    </contour>
  </outline>
</glyph>
<glyph name="upsilondieresistonos" format="2">
  <advance width="572"/>
  <unicode hex="03B0"/>
  <outline>
    <contour>
      <point x="286" y="-12" type="qcurve" smooth="yes"/>
      <point x="175" y="-12"/>
      <point x="74" y="117"/>
      <point x="74" y="244" type="qcurve" smooth="yes"/>
      <point x="74" y="519" type="line"/>
      <point x="173" y="519" type="line"/>
      <point x="173" y="227" type="line" smooth="yes"/>
      <point x="173" y="145"/>
      <point x="227" y="72"/>
      <point x="286" y="72" type="qcurve" smooth="yes"/>
      <point x="348" y="72"/>
      <point x="399" y="152"/>
      <point x="399" y="240" type="qcurve" smooth="yes"/>
      <point x="399" y="519" type="line"/>
      <point x="498" y="519" type="line"/>
      <point x="498" y="244" type="line" smooth="yes"/>
      <point x="498" y="116"/>
      <point x="395" y="-12"/>
    </contour>
    <contour>
      <point x="289" y="583" type="line"/>
      <point x="238" y="598" type="line"/>
      <point x="265" y="789" type="line"/>
      <point x="341" y="769" type="line"/>
    </contour>
    <contour>
      <point x="166" y="615" type="qcurve" smooth="yes"/>
      <point x="128" y="615"/>
      <point x="117" y="652" type="qcurve"/>
      <point x="115" y="664"/>
      <point x="115" y="674" type="qcurve" smooth="yes"/>
      <point x="115" y="697"/>
      <point x="135" y="727"/>
      <point x="161" y="727" type="qcurve" smooth="yes"/>
      <point x="179" y="727"/>
      <point x="206" y="708"/>
      <point x="211" y="690" type="qcurve"/>
      <point x="213" y="679"/>
      <point x="213" y="669" type="qcurve" smooth="yes"/>
      <point x="213" y="646"/>
      <point x="191" y="615"/>
    </contour>
    <contour>
      <point x="403" y="615" type="qcurve" smooth="yes"/>
      <point x="376" y="615"/>
      <point x="352" y="651"/>
      <point x="352" y="673" type="qcurve" smooth="yes"/>
      <point x="352" y="695"/>
      <point x="373" y="727"/>
      <point x="399" y="727" type="qcurve" smooth="yes"/>
      <point x="416" y="727"/>
      <point x="443" y="708"/>
      <point x="448" y="690" type="qcurve"/>
      <point x="450" y="679"/>
      <point x="450" y="669" type="qcurve" smooth="yes"/>
      <point x="450" y="646"/>
      <point x="429" y="615"/>
    </contour>
  </outline>
</glyph>
<glyph name="sigmafinal" format="2">
  <advance width="490"/>
  <unicode hex="03C2"/>
  <outline>
    <contour>
      <point x="384" y="-164" type="line"/>
      <point x="295" y="-137" type="line"/>
      <point x="333" y="-13" type="line"/>
      <point x="229" y="16" type="line"/>
      <point x="181" y="28"/>
      <point x="146" y="49" type="qcurve" smooth="yes"/>
      <point x="112" y="69"/>
      <point x="89" y="99" type="qcurve" smooth="yes"/>
      <point x="66" y="129"/>
      <point x="55" y="170" type="qcurve" smooth="yes"/>
      <point x="44" y="211"/>
      <point x="44" y="266" type="qcurve" smooth="yes"/>
      <point x="44" y="326"/>
      <point x="59" y="375" type="qcurve" smooth="yes"/>
      <point x="74" y="423"/>
      <point x="103" y="458" type="qcurve" smooth="yes"/>
      <point x="132" y="493"/>
      <point x="174" y="512" type="qcurve" smooth="yes"/>
      <point x="216" y="531"/>
      <point x="270" y="531" type="qcurve" smooth="yes"/>
      <point x="341" y="531"/>
      <point x="389" y="498" type="qcurve" smooth="yes"/>
      <point x="437" y="465"/>
      <point x="462" y="405" type="qcurve"/>
      <point x="380" y="366" type="line"/>
      <point x="366" y="404"/>
      <point x="339" y="425" type="qcurve" smooth="yes"/>
      <point x="311" y="446"/>
      <point x="269" y="446" type="qcurve" smooth="yes"/>
      <point x="211" y="446"/>
      <point x="180" y="407" type="qcurve" smooth="yes"/>
      <point x="149" y="367"/>
      <point x="149" y="305" type="qcurve" smooth="yes"/>
      <point x="149" y="239" type="line" smooth="yes"/>
      <point x="149" y="131"/>
      <point x="272" y="98" type="qcurve" smooth="yes"/>
      <point x="356" y="75" type="line" smooth="yes"/>
      <point x="403" y="62"/>
      <point x="416" y="25" type="qcurve"/>
      <point x="426" y="7"/>
      <point x="426" y="-12" type="qcurve" smooth="yes"/>
      <point x="426" y="-17" type="line"/>
      <point x="425" y="-20"/>
      <point x="425" y="-25" type="qcurve"/>
    </contour>
  </outline>
</glyph>
<glyph name="upsilondieresis" format="2">
  <advance width="572"/>
  <unicode hex="03CB"/>
  <outline>
    <contour>
      <point x="286" y="-12" type="qcurve" smooth="yes"/>
      <point x="175" y="-12"/>
      <point x="74" y="117"/>
      <point x="74" y="244" type="qcurve" smooth="yes"/>
      <point x="74" y="519" type="line"/>
      <point x="173" y="519" type="line"/>
      <point x="173" y="227" type="line" smooth="yes"/>
      <point x="173" y="145"/>
      <point x="227" y="72"/>
      <point x="286" y="72" type="qcurve" smooth="yes"/>
      <point x="348" y="72"/>
      <point x="399" y="152"/>
      <point x="399" y="240" type="qcurve" smooth="yes"/>
      <point x="399" y="519" type="line"/>
      <point x="498" y="519" type="line"/>
      <point x="498" y="244" type="line" smooth="yes"/>
      <point x="498" y="116"/>
      <point x="395" y="-12"/>
    </contour>
    <contour>
      <point x="189" y="610" type="qcurve" smooth="yes"/>
      <point x="147" y="610"/>
      <point x="127" y="646"/>
      <point x="127" y="681" type="qcurve" smooth="yes"/>
      <point x="127" y="734"/>
      <point x="189" y="734" type="qcurve" smooth="yes"/>
      <point x="231" y="734"/>
      <point x="251" y="699"/>
      <point x="251" y="663" type="qcurve" smooth="yes"/>
      <point x="251" y="610"/>
    </contour>
    <contour>
      <point x="389" y="610" type="qcurve" smooth="yes"/>
      <point x="347" y="610"/>
      <point x="327" y="646"/>
      <point x="327" y="681" type="qcurve" smooth="yes"/>
      <point x="327" y="734"/>
      <point x="389" y="734" type="qcurve" smooth="yes"/>
      <point x="431" y="734"/>
      <point x="451" y="699"/>
      <point x="451" y="663" type="qcurve" smooth="yes"/>
      <point x="451" y="610"/>
    </contour>
  </outline>
</glyph>
<glyph name="upsilontonos" format="2">
  <advance width="572"/>
  <unicode hex="03CD"/>
  <outline>
    <contour>
      <point x="286" y="-12" type="qcurve" smooth="yes"/>
      <point x="175" y="-12"/>
      <point x="74" y="117"/>
      <point x="74" y="244" type="qcurve" smooth="yes"/>
      <point x="74" y="519" type="line"/>
      <point x="173" y="519" type="line"/>
      <point x="173" y="227" type="line" smooth="yes"/>
      <point x="173" y="145"/>
      <point x="227" y="72"/>
      <point x="286" y="72" type="qcurve" smooth="yes"/>
      <point x="348" y="72"/>
      <point x="399" y="152"/>
      <point x="399" y="240" type="qcurve" smooth="yes"/>
      <point x="399" y="519" type="line"/>
      <point x="498" y="519" type="line"/>
      <point x="498" y="244" type="line" smooth="yes"/>
      <point x="498" y="116"/>
      <point x="395" y="-12"/>
    </contour>
    <contour>
      <point x="318" y="583" type="line"/>
      <point x="251" y="592" type="line"/>
      <point x="282" y="789" type="line"/>
      <point x="375" y="776" type="line"/>
    </contour>
  </outline>
</glyph>
<glyph name="Gjecyr" format="2">
  <advance width="505"/>
  <unicode hex="0403"/>
  <outline>
    <contour>
      <point x="86" y="0" type="line"/>
      <point x="86" y="698" type="line"/>
      <point x="479" y="698" type="line"/>
      <point x="479" y="598" type="line"/>
      <point x="199" y="598" type="line"/>
      <point x="199" y="0" type="line"/>
    </contour>
    <contour>
      <point x="225" y="781" type="line"/>
      <point x="316" y="961" type="line"/>
      <point x="411" y="915" type="line"/>
      <point x="293" y="749" type="line"/>
    </contour>
  </outline>
</glyph>
<glyph name="Yukrcyr" format="2">
  <advance width="285"/>
  <unicode hex="0407"/>
  <outline>
    <contour>
      <point x="86" y="0" type="line"/>
      <point x="86" y="698" type="line"/>
      <point x="199" y="698" type="line"/>
      <point x="199" y="0" type="line"/>
    </contour>
    <contour>
      <point x="43" y="776" type="qcurve" smooth="yes"/>
      <point x="9" y="776"/>
      <point x="-20" y="807"/>
      <point x="-20" y="830" type="qcurve" smooth="yes"/>
      <point x="-20" y="848" type="line" smooth="yes"/>
      <point x="-20" y="871"/>
      <point x="9" y="902"/>
      <point x="43" y="902" type="qcurve" smooth="yes"/>
      <point x="77" y="902"/>
      <point x="106" y="871"/>
      <point x="106" y="848" type="qcurve" smooth="yes"/>
      <point x="106" y="830" type="line" smooth="yes"/>
      <point x="106" y="807"/>
      <point x="77" y="776"/>
    </contour>
    <contour>
      <point x="243" y="776" type="qcurve" smooth="yes"/>
      <point x="209" y="776"/>
      <point x="180" y="807"/>
      <point x="180" y="830" type="qcurve" smooth="yes"/>
      <point x="180" y="848" type="line" smooth="yes"/>
      <point x="180" y="871"/>
      <point x="209" y="902"/>
      <point x="243" y="902" type="qcurve" smooth="yes"/>
      <point x="277" y="902"/>
      <point x="306" y="871"/>
      <point x="306" y="848" type="qcurve" smooth="yes"/>
      <point x="306" y="830" type="line" smooth="yes"/>
      <point x="306" y="807"/>
      <point x="277" y="776"/>
    </contour>
  </outline>
</glyph>
<glyph name="Elcyr" format="2">
  <advance width="707"/>
  <unicode hex="041B"/>
  <outline>
    <contour>
      <point x="14" y="-3" type="line"/>
      <point x="14" y="100" type="line"/>
      <point x="91" y="100" type="line"/>
      <point x="131" y="136"/>
      <point x="170" y="304"/>
      <point x="170" y="493" type="qcurve" smooth="yes"/>
      <point x="170" y="698" type="line"/>
      <point x="621" y="698" type="line"/>
      <point x="621" y="0" type="line"/>
      <point x="508" y="0" type="line"/>
      <point x="508" y="598" type="line"/>
      <point x="279" y="598" type="line"/>
      <point x="279" y="480" type="line" smooth="yes"/>
      <point x="279" y="272"/>
      <point x="228" y="82"/>
      <point x="186" y="45" type="qcurve"/>
      <point x="160" y="20"/>
      <point x="100" y="-3"/>
      <point x="57" y="-3" type="qcurve" smooth="yes"/>
    </contour>
  </outline>
</glyph>
<glyph name="Pecyr" format="2">
  <advance width="699"/>
  <unicode hex="041F"/>
  <outline>
    <contour>
      <point x="500" y="0" type="line"/>
      <point x="500" y="598" type="line"/>
      <point x="199" y="598" type="line"/>
      <point x="199" y="0" type="line"/>
      <point x="86" y="0" type="line"/>
      <point x="86" y="698" type="line"/>
      <point x="613" y="698" type="line"/>
      <point x="613" y="0" type="line"/>
    </contour>
  </outline>
</glyph>
<glyph name="efcyr" format="2">
  <advance width="773"/>
  <unicode hex="0444"/>
  <outline>
    <contour>
      <point x="520" y="74" type="qcurve" smooth="yes"/>
      <point x="569" y="74"/>
      <point x="613" y="138"/>
      <point x="613" y="213" type="qcurve" smooth="yes"/>
      <point x="613" y="320" type="line" smooth="yes"/>
      <point x="613" y="446"/>
      <point x="520" y="446" type="qcurve" smooth="yes"/>
      <point x="440" y="446"/>
      <point x="440" y="381" type="qcurve" smooth="yes"/>
      <point x="440" y="139" type="line"/>
      <point x="441" y="74"/>
    </contour>
    <contour>
      <point x="253" y="74" type="qcurve" smooth="yes"/>
      <point x="333" y="75"/>
      <point x="333" y="139" type="qcurve" smooth="yes"/>
      <point x="333" y="381" type="line" smooth="yes"/>
      <point x="333" y="446"/>
      <point x="253" y="446" type="qcurve" smooth="yes"/>
      <point x="204" y="446"/>
      <point x="160" y="381"/>
      <point x="160" y="307" type="qcurve" smooth="yes"/>
      <point x="160" y="202" type="line" smooth="yes"/>
      <point x="160" y="74"/>
    </contour>
    <contour>
      <point x="332" y="-200" type="line"/>
      <point x="332" y="55" type="line"/>
      <point x="328" y="55" type="line"/>
      <point x="293" y="-12"/>
      <point x="216" y="-12" type="qcurve" smooth="yes"/>
      <point x="130" y="-12"/>
      <point x="46" y="118"/>
      <point x="46" y="260" type="qcurve" smooth="yes"/>
      <point x="46" y="272" type="line" smooth="yes"/>
      <point x="46" y="532"/>
      <point x="216" y="532" type="qcurve" smooth="yes"/>
      <point x="288" y="532"/>
      <point x="328" y="464" type="qcurve"/>
      <point x="332" y="464" type="line"/>
      <point x="332" y="710" type="line"/>
      <point x="441" y="710" type="line"/>
      <point x="441" y="464" type="line"/>
      <point x="445" y="464" type="line"/>
      <point x="485" y="532"/>
      <point x="557" y="532" type="qcurve" smooth="yes"/>
      <point x="644" y="532"/>
      <point x="727" y="402"/>
      <point x="727" y="260" type="qcurve" smooth="yes"/>
      <point x="727" y="118"/>
      <point x="643" y="-12"/>
      <point x="557" y="-12" type="qcurve" smooth="yes"/>
      <point x="481" y="-12"/>
      <point x="445" y="55" type="qcurve"/>
      <point x="441" y="55" type="line"/>
      <point x="441" y="-200" type="line"/>
    </contour>
  </outline>
</glyph>
<glyph name="idieresiscyr" format="2">
  <advance width="598"/>
  <unicode hex="04E5"/>
  <outline>
    <contour>
      <point x="413" y="0" type="line"/>
      <point x="413" y="254" type="line"/>
      <point x="423" y="377" type="line"/>
      <point x="419" y="377" type="line"/>
      <point x="357" y="266" type="line"/>
      <point x="177" y="0" type="line"/>
      <point x="78" y="0" type="line"/>
      <point x="78" y="520" type="line"/>
      <point x="185" y="520" type="line"/>
      <point x="185" y="266" type="line"/>
      <point x="175" y="143" type="line"/>
      <point x="179" y="143" type="line"/>
      <point x="241" y="254" type="line"/>
      <point x="421" y="520" type="line"/>
      <point x="520" y="520" type="line"/>
      <point x="520" y="0" type="line"/>
    </contour>
    <contour>
      <point x="200" y="610" type="qcurve" smooth="yes"/>
      <point x="138" y="610"/>
      <point x="138" y="663" type="qcurve" smooth="yes"/>
      <point x="138" y="681" type="line" smooth="yes"/>
      <point x="138" y="734"/>
      <point x="200" y="734" type="qcurve" smooth="yes"/>
      <point x="262" y="734"/>
      <point x="262" y="681" type="qcurve" smooth="yes"/>
      <point x="262" y="663" type="line" smooth="yes"/>
      <point x="262" y="610"/>
    </contour>
    <contour>
      <point x="400" y="610" type="qcurve" smooth="yes"/>
      <point x="338" y="610"/>
      <point x="338" y="663" type="qcurve" smooth="yes"/>
      <point x="338" y="681" type="line" smooth="yes"/>
      <point x="338" y="734"/>
      <point x="400" y="734" type="qcurve" smooth="yes"/>
      <point x="462" y="734"/>
      <point x="462" y="681" type="qcurve" smooth="yes"/>
      <point x="462" y="663" type="line" smooth="yes"/>
      <point x="462" y="610"/>
    </contour>
  </outline>
</glyph>
<glyph name="baht-thai" format="2">
  <advance width="652"/>
  <unicode hex="0E3F"/>
  <outline>
    <contour>
      <point x="393" y="115" type="line" smooth="yes"/>
      <point x="436" y="115"/>
      <point x="486" y="155"/>
      <point x="486" y="196" type="qcurve" smooth="yes"/>
      <point x="486" y="229" type="line" smooth="yes"/>
      <point x="486" y="270"/>
      <point x="436" y="310"/>
      <point x="393" y="310" type="qcurve" smooth="yes"/>
      <point x="362" y="310" type="line"/>
      <point x="362" y="115" type="line"/>
    </contour>
    <contour>
      <point x="284" y="583" type="line"/>
      <point x="194" y="583" type="line"/>
      <point x="194" y="399" type="line"/>
      <point x="284" y="399" type="line"/>
    </contour>
    <contour>
      <point x="380" y="399" type="line" smooth="yes"/>
      <point x="461" y="399"/>
      <point x="461" y="475" type="qcurve" smooth="yes"/>
      <point x="461" y="507" type="line" smooth="yes"/>
      <point x="461" y="583"/>
      <point x="380" y="583" type="qcurve" smooth="yes"/>
      <point x="362" y="583" type="line"/>
      <point x="362" y="399" type="line"/>
    </contour>
    <contour>
      <point x="284" y="310" type="line"/>
      <point x="194" y="310" type="line"/>
      <point x="194" y="115" type="line"/>
      <point x="284" y="115" type="line"/>
    </contour>
    <contour>
      <point x="279" y="-85" type="line"/>
      <point x="279" y="21" type="line"/>
      <point x="86" y="21" type="line"/>
      <point x="86" y="677" type="line"/>
      <point x="279" y="677" type="line"/>
      <point x="279" y="780" type="line"/>
      <point x="367" y="780" type="line"/>
      <point x="367" y="677" type="line"/>
      <point x="394" y="677" type="line" smooth="yes"/>
      <point x="479" y="677"/>
      <point x="574" y="585"/>
      <point x="574" y="508" type="qcurve" smooth="yes"/>
      <point x="574" y="385"/>
      <point x="453" y="368" type="qcurve"/>
      <point x="453" y="362" type="line"/>
      <point x="539" y="354"/>
      <point x="578" y="297" type="qcurve" smooth="yes"/>
      <point x="599" y="265"/>
      <point x="599" y="210" type="qcurve" smooth="yes"/>
      <point x="599" y="128"/>
      <point x="496" y="21"/>
      <point x="423" y="21" type="qcurve" smooth="yes"/>
      <point x="367" y="21" type="line"/>
      <point x="367" y="-85" type="line"/>
    </contour>
  </outline>
</glyph>
<glyph name="Wdieresis" format="2">
  <advance width="926"/>
  <unicode hex="1E84"/>
  <outline>
    <contour>
      <point x="603" y="0" type="line"/>
      <point x="462" y="573" type="line"/>
      <point x="460" y="573" type="line"/>
      <point x="316" y="0" type="line"/>
      <point x="189" y="0" type="line"/>
      <point x="24" y="698" type="line"/>
      <point x="139" y="698" type="line"/>
      <point x="259" y="130" type="line"/>
      <point x="262" y="130" type="line"/>
      <point x="401" y="698" type="line"/>
      <point x="527" y="698" type="line"/>
      <point x="579" y="487" type="line"/>
      <point x="664" y="131" type="line"/>
      <point x="667" y="131" type="line"/>
      <point x="791" y="698" type="line"/>
      <point x="902" y="698" type="line"/>
      <point x="730" y="0" type="line"/>
    </contour>
    <contour>
      <point x="364" y="776" type="qcurve" smooth="yes"/>
      <point x="330" y="776"/>
      <point x="301" y="807"/>
      <point x="301" y="830" type="qcurve" smooth="yes"/>
      <point x="301" y="848" type="line" smooth="yes"/>
      <point x="301" y="871"/>
      <point x="330" y="902"/>
      <point x="364" y="902" type="qcurve" smooth="yes"/>
      <point x="398" y="902"/>
      <point x="427" y="871"/>
      <point x="427" y="848" type="qcurve" smooth="yes"/>
      <point x="427" y="830" type="line" smooth="yes"/>
      <point x="427" y="807"/>
      <point x="398" y="776"/>
    </contour>
    <contour>
      <point x="564" y="776" type="qcurve" smooth="yes"/>
      <point x="530" y="776"/>
      <point x="501" y="807"/>
      <point x="501" y="830" type="qcurve" smooth="yes"/>
      <point x="501" y="848" type="line" smooth="yes"/>
      <point x="501" y="871"/>
      <point x="530" y="902"/>
      <point x="564" y="902" type="qcurve" smooth="yes"/>
      <point x="598" y="902"/>
      <point x="627" y="871"/>
      <point x="627" y="848" type="qcurve" smooth="yes"/>
      <point x="627" y="830" type="line" smooth="yes"/>
      <point x="627" y="807"/>
      <point x="598" y="776"/>
    </contour>
  </outline>
</glyph>
<glyph name="abreveacute" format="2">
  <advance width="538"/>
  <unicode hex="1EAF"/>
  <outline>
    <contour>
      <point x="239" y="71" type="qcurve" smooth="yes"/>
      <point x="290" y="71"/>
      <point x="356" y="116"/>
      <point x="356" y="154" type="qcurve" smooth="yes"/>
      <point x="356" y="229" type="line"/>
      <point x="264" y="229" type="line" smooth="yes"/>
      <point x="152" y="229"/>
      <point x="151" y="159" type="qcurve"/>
      <point x="151" y="141" type="line" smooth="yes"/>
      <point x="151" y="71"/>
    </contour>
    <contour>
      <point x="208" y="-12" type="qcurve" smooth="yes"/>
      <point x="127" y="-12"/>
      <point x="40" y="72"/>
      <point x="40" y="143" type="qcurve" smooth="yes"/>
      <point x="40" y="299"/>
      <point x="262" y="299" type="qcurve" smooth="yes"/>
      <point x="356" y="299" type="line"/>
      <point x="356" y="343" type="line" smooth="yes"/>
      <point x="356" y="443"/>
      <point x="249" y="443" type="qcurve" smooth="yes"/>
      <point x="203" y="443"/>
      <point x="145" y="403"/>
      <point x="125" y="372" type="qcurve"/>
      <point x="60" y="431" type="line"/>
      <point x="118" y="532"/>
      <point x="256" y="532" type="qcurve" smooth="yes"/>
      <point x="357" y="532"/>
      <point x="465" y="438"/>
      <point x="465" y="350" type="qcurve" smooth="yes"/>
      <point x="465" y="0" type="line"/>
      <point x="365" y="0" type="line"/>
      <point x="365" y="87" type="line"/>
      <point x="360" y="87" type="line"/>
      <point x="345" y="38"/>
      <point x="265" y="-12"/>
    </contour>
    <contour>
      <point x="270" y="713" type="line"/>
      <point x="208" y="743" type="line"/>
      <point x="298" y="923" type="line"/>
      <point x="386" y="879" type="line"/>
    </contour>
    <contour>
      <point x="259" y="579" type="qcurve" smooth="yes"/>
      <point x="206" y="579"/>
      <point x="137" y="622"/>
      <point x="96" y="684"/>
      <point x="86" y="715" type="qcurve"/>
      <point x="144" y="748" type="line"/>
      <point x="165" y="716" type="line" smooth="yes"/>
      <point x="183" y="687"/>
      <point x="227" y="656"/>
      <point x="259" y="656" type="qcurve" smooth="yes"/>
      <point x="291" y="656"/>
      <point x="335" y="687"/>
      <point x="353" y="716" type="qcurve" smooth="yes"/>
      <point x="374" y="748" type="line"/>
      <point x="432" y="715" type="line"/>
      <point x="422" y="684"/>
      <point x="381" y="622"/>
      <point x="312" y="579"/>
    </contour>
  </outline>
</glyph>
<glyph name="ihoi" format="2">
  <advance width="265"/>
  <unicode hex="1EC9"/>
  <outline>
    <contour>
      <point x="78" y="0" type="line"/>
      <point x="78" y="520" type="line"/>
      <point x="187" y="520" type="line"/>
      <point x="187" y="0" type="line"/>
    </contour>
    <contour>
      <point x="103" y="602" type="line"/>
      <point x="153" y="701" type="line"/>
      <point x="34" y="701" type="line"/>
      <point x="34" y="781" type="line"/>
      <point x="157" y="781" type="line" smooth="yes"/>
      <point x="239" y="781"/>
      <point x="239" y="718" type="qcurve" smooth="yes"/>
      <point x="239" y="669"/>
      <point x="187" y="605" type="qcurve" smooth="yes"/>
      <point x="161" y="574" type="line"/>
    </contour>
  </outline>
</glyph>
<glyph name="ocircumflexhoi" format="2">
  <advance width="564"/>
  <unicode hex="1ED5"/>
  <outline>
    <contour>
      <point x="282" y="78" type="qcurve" smooth="yes"/>
      <point x="338" y="78"/>
      <point x="406" y="147"/>
      <point x="406" y="216" type="qcurve" smooth="yes"/>
      <point x="406" y="304" type="line" smooth="yes"/>
      <point x="406" y="373"/>
      <point x="338" y="442"/>
      <point x="282" y="442" type="qcurve" smooth="yes"/>
      <point x="226" y="442"/>
      <point x="158" y="373"/>
      <point x="158" y="304" type="qcurve" smooth="yes"/>
      <point x="158" y="216" type="line" smooth="yes"/>
      <point x="158" y="147"/>
      <point x="226" y="78"/>
    </contour>
    <contour>
      <point x="282" y="-12" type="qcurve" smooth="yes"/>
      <point x="170" y="-12"/>
      <point x="43" y="140"/>
      <point x="43" y="260" type="qcurve" smooth="yes"/>
      <point x="43" y="388"/>
      <point x="176" y="532"/>
      <point x="282" y="532" type="qcurve" smooth="yes"/>
      <point x="388" y="532"/>
      <point x="521" y="388"/>
      <point x="521" y="260" type="qcurve" smooth="yes"/>
      <point x="521" y="140"/>
      <point x="394" y="-12"/>
    </contour>
    <contour>
      <point x="394" y="732" type="line"/>
      <point x="447" y="834" type="line"/>
      <point x="326" y="834" type="line"/>
      <point x="326" y="911" type="line"/>
      <point x="446" y="911" type="line" smooth="yes"/>
      <point x="491" y="911"/>
      <point x="528" y="874"/>
      <point x="528" y="848" type="qcurve" smooth="yes"/>
      <point x="528" y="805"/>
      <point x="473" y="735" type="qcurve"/>
      <point x="447" y="704" type="line"/>
    </contour>
    <contour>
      <point x="281" y="685" type="line"/>
      <point x="160" y="576" type="line"/>
      <point x="107" y="621" type="line"/>
      <point x="232" y="760" type="line"/>
      <point x="330" y="760" type="line"/>
      <point x="455" y="621" type="line"/>
      <point x="402" y="576" type="line"/>
    </contour>
  </outline>
</glyph>
<glyph name="ocircumflextilde" format="2">
  <advance width="564"/>
  <unicode hex="1ED7"/>
  <outline>
    <contour>
      <point x="282" y="78" type="qcurve" smooth="yes"/>
      <point x="338" y="78"/>
      <point x="406" y="147"/>
      <point x="406" y="216" type="qcurve" smooth="yes"/>
      <point x="406" y="304" type="line" smooth="yes"/>
      <point x="406" y="373"/>
      <point x="338" y="442"/>
      <point x="282" y="442" type="qcurve" smooth="yes"/>
      <point x="226" y="442"/>
      <point x="158" y="373"/>
      <point x="158" y="304" type="qcurve" smooth="yes"/>
      <point x="158" y="216" type="line" smooth="yes"/>
      <point x="158" y="147"/>
      <point x="226" y="78"/>
    </contour>
    <contour>
      <point x="282" y="-12" type="qcurve" smooth="yes"/>
      <point x="170" y="-12"/>
      <point x="43" y="140"/>
      <point x="43" y="260" type="qcurve" smooth="yes"/>
      <point x="43" y="388"/>
      <point x="176" y="532"/>
      <point x="282" y="532" type="qcurve" smooth="yes"/>
      <point x="388" y="532"/>
      <point x="521" y="388"/>
      <point x="521" y="260" type="qcurve" smooth="yes"/>
      <point x="521" y="140"/>
      <point x="394" y="-12"/>
    </contour>
    <contour>
      <point x="354" y="783" type="qcurve" smooth="yes"/>
      <point x="331" y="783"/>
      <point x="297" y="795"/>
      <point x="281" y="803" type="qcurve"/>
      <point x="276" y="806" type="line"/>
      <point x="234" y="829"/>
      <point x="202" y="829" type="qcurve" smooth="yes"/>
      <point x="185" y="829"/>
      <point x="159" y="816"/>
      <point x="144" y="803" type="qcurve"/>
      <point x="105" y="851" type="line"/>
      <point x="141" y="908"/>
      <point x="208" y="908" type="qcurve" smooth="yes"/>
      <point x="231" y="908"/>
      <point x="265" y="896"/>
      <point x="281" y="888" type="qcurve"/>
      <point x="286" y="885" type="line"/>
      <point x="329" y="862"/>
      <point x="360" y="862" type="qcurve" smooth="yes"/>
      <point x="377" y="862"/>
      <point x="403" y="875"/>
      <point x="418" y="888" type="qcurve"/>
      <point x="457" y="840" type="line"/>
      <point x="421" y="783"/>
    </contour>
    <contour>
      <point x="281" y="681" type="line"/>
      <point x="160" y="576" type="line"/>
      <point x="108" y="621" type="line"/>
      <point x="232" y="755" type="line"/>
      <point x="330" y="755" type="line"/>
      <point x="454" y="621" type="line"/>
      <point x="402" y="576" type="line"/>
    </contour>
  </outline>
</glyph>
<glyph name="uhornacute" format="2">
  <advance width="581"/>
  <unicode hex="1EE9"/>
  <outline>
    <contour>
      <point x="243" y="-12" type="qcurve" smooth="yes"/>
      <point x="162" y="-12"/>
      <point x="73" y="92"/>
      <point x="73" y="189" type="qcurve" smooth="yes"/>
      <point x="73" y="520" type="line"/>
      <point x="182" y="520" type="line"/>
      <point x="182" y="203" type="line" smooth="yes"/>
      <point x="182" y="82"/>
      <point x="282" y="82" type="qcurve" smooth="yes"/>
      <point x="324" y="82"/>
      <point x="393" y="126"/>
      <point x="393" y="172" type="qcurve" smooth="yes"/>
      <point x="393" y="520" type="line"/>
      <point x="483" y="520" type="line"/>
      <point x="483" y="629" type="line"/>
      <point x="577" y="629" type="line"/>
      <point x="577" y="531" type="line" smooth="yes"/>
      <point x="577" y="494"/>
      <point x="547" y="452"/>
      <point x="502" y="452" type="qcurve"/>
      <point x="502" y="0" type="line"/>
      <point x="393" y="0" type="line"/>
      <point x="393" y="86" type="line"/>
      <point x="389" y="86" type="line"/>
      <point x="357" y="-12"/>
    </contour>
    <contour>
      <point x="232" y="615" type="line"/>
      <point x="323" y="795" type="line"/>
      <point x="418" y="749" type="line"/>
      <point x="300" y="582" type="line"/>
    </contour>
  </outline>
</glyph>
<glyph name="uhornhoi" format="2">
  <advance width="581"/>
  <unicode hex="1EED"/>
  <outline>
    <contour>
      <point x="243" y="-12" type="qcurve" smooth="yes"/>
      <point x="162" y="-12"/>
      <point x="73" y="92"/>
      <point x="73" y="189" type="qcurve" smooth="yes"/>
      <point x="73" y="520" type="line"/>
      <point x="182" y="520" type="line"/>
      <point x="182" y="203" type="line" smooth="yes"/>
      <point x="182" y="82"/>
      <point x="282" y="82" type="qcurve" smooth="yes"/>
      <point x="324" y="82"/>
      <point x="393" y="126"/>
      <point x="393" y="172" type="qcurve" smooth="yes"/>
      <point x="393" y="520" type="line"/>
      <point x="483" y="520" type="line"/>
      <point x="483" y="629" type="line"/>
      <point x="577" y="629" type="line"/>
      <point x="577" y="531" type="line" smooth="yes"/>
      <point x="577" y="494"/>
      <point x="547" y="452"/>
      <point x="502" y="452" type="qcurve"/>
      <point x="502" y="0" type="line"/>
      <point x="393" y="0" type="line"/>
      <point x="393" y="86" type="line"/>
      <point x="389" y="86" type="line"/>
      <point x="357" y="-12"/>
    </contour>
    <contour>
      <point x="258" y="602" type="line"/>
      <point x="308" y="701" type="line"/>
      <point x="189" y="701" type="line"/>
      <point x="189" y="781" type="line"/>
      <point x="312" y="781" type="line" smooth="yes"/>
      <point x="394" y="781"/>
      <point x="394" y="718" type="qcurve" smooth="yes"/>
      <point x="394" y="669"/>
      <point x="342" y="605" type="qcurve" smooth="yes"/>
      <point x="316" y="574" type="line"/>
    </contour>
  </outline>
</glyph>
<glyph name="Uhorndotbelow" format="2">
  <advance width="686"/>
  <unicode hex="1EF0"/>
  <outline>
    <contour>
      <point x="342" y="-184" type="qcurve" smooth="yes"/>
      <point x="308" y="-184"/>
      <point x="278" y="-154"/>
      <point x="278" y="-131" type="qcurve" smooth="yes"/>
      <point x="278" y="-113" type="line" smooth="yes"/>
      <point x="278" y="-90"/>
      <point x="308" y="-60"/>
      <point x="342" y="-60" type="qcurve" smooth="yes"/>
      <point x="376" y="-60"/>
      <point x="406" y="-90"/>
      <point x="406" y="-113" type="qcurve" smooth="yes"/>
      <point x="406" y="-131" type="line" smooth="yes"/>
      <point x="406" y="-154"/>
      <point x="376" y="-184"/>
    </contour>
    <contour>
      <point x="343" y="-12" type="qcurve" smooth="yes"/>
      <point x="200" y="-12"/>
      <point x="82" y="133"/>
      <point x="82" y="286" type="qcurve" smooth="yes"/>
      <point x="82" y="698" type="line"/>
      <point x="193" y="698" type="line"/>
      <point x="193" y="268" type="line" smooth="yes"/>
      <point x="193" y="179"/>
      <point x="261" y="89"/>
      <point x="343" y="89" type="qcurve" smooth="yes"/>
      <point x="425" y="89"/>
      <point x="493" y="179"/>
      <point x="493" y="268" type="qcurve" smooth="yes"/>
      <point x="493" y="698" type="line"/>
      <point x="579" y="698" type="line"/>
      <point x="579" y="807" type="line"/>
      <point x="672" y="807" type="line"/>
      <point x="672" y="709" type="line" smooth="yes"/>
      <point x="672" y="674"/>
      <point x="643" y="633"/>
      <point x="604" y="630" type="qcurve"/>
      <point x="604" y="286" type="line" smooth="yes"/>
      <point x="604" y="133"/>
      <point x="486" y="-12"/>
    </contour>
  </outline>
</glyph>
<glyph name="ydotbelow" format="2">
  <advance width="514"/>
  <unicode hex="1EF5"/>
  <outline>
    <contour>
      <point x="409" y="-184" type="qcurve" smooth="yes"/>
      <point x="375" y="-184"/>
      <point x="345" y="-154"/>
      <point x="345" y="-131" type="qcurve" smooth="yes"/>
      <point x="345" y="-113" type="line" smooth="yes"/>
      <point x="345" y="-90"/>
      <point x="375" y="-60"/>
      <point x="409" y="-60" type="qcurve" smooth="yes"/>
      <point x="443" y="-60"/>
      <point x="473" y="-90"/>
      <point x="473" y="-113" type="qcurve" smooth="yes"/>
      <point x="473" y="-131" type="line" smooth="yes"/>
      <point x="473" y="-154"/>
      <point x="443" y="-184"/>
    </contour>
    <contour>
      <point x="83" y="-200" type="line"/>
      <point x="83" y="-111" type="line"/>
      <point x="171" y="-111" type="line"/>
      <point x="201" y="-23" type="line"/>
      <point x="12" y="520" type="line"/>
      <point x="121" y="520" type="line"/>
      <point x="225" y="214" type="line"/>
      <point x="255" y="101" type="line"/>
      <point x="260" y="101" type="line"/>
      <point x="293" y="214" type="line"/>
      <point x="397" y="520" type="line"/>
      <point x="502" y="520" type="line"/>
      <point x="283" y="-103" type="line" smooth="yes"/>
      <point x="265" y="-157"/>
      <point x="203" y="-200"/>
      <point x="146" y="-200" type="qcurve" smooth="yes"/>
    </contour>
  </outline>
</glyph>
<glyph name="quotedblleft" format="2">
  <advance width="501"/>
  <unicode hex="201C"/>
  <outline>
    <contour>
      <point x="356" y="469" type="qcurve" smooth="yes"/>
      <point x="319" y="469"/>
      <point x="284" y="505"/>
      <point x="284" y="533" type="qcurve" smooth="yes"/>
      <point x="284" y="550" type="line" smooth="yes"/>
      <point x="284" y="597"/>
      <point x="338" y="702"/>
      <point x="383" y="740" type="qcurve"/>
      <point x="460" y="740" type="line"/>
      <point x="398" y="682"/>
      <point x="378" y="614" type="qcurve"/>
      <point x="428" y="603"/>
      <point x="428" y="551" type="qcurve" smooth="yes"/>
      <point x="428" y="533" type="line" smooth="yes"/>
      <point x="428" y="505"/>
      <point x="393" y="469"/>
    </contour>
    <contour>
      <point x="139" y="469" type="qcurve" smooth="yes"/>
      <point x="102" y="469"/>
      <point x="67" y="505"/>
      <point x="67" y="533" type="qcurve" smooth="yes"/>
      <point x="67" y="550" type="line" smooth="yes"/>
      <point x="67" y="597"/>
      <point x="121" y="702"/>
      <point x="166" y="740" type="qcurve"/>
      <point x="243" y="740" type="line"/>
      <point x="181" y="682"/>
      <point x="161" y="614" type="qcurve"/>
      <point x="211" y="603"/>
      <point x="211" y="551" type="qcurve" smooth="yes"/>
      <point x="211" y="533" type="line" smooth="yes"/>
      <point x="211" y="505"/>
      <point x="176" y="469"/>
    </contour>
  </outline>
</glyph>
<glyph name="seven.superior" format="2">
  <advance width="331"/>
  <unicode hex="2077"/>
  <outline>
    <contour>
      <point x="171" y="329" type="line"/>
      <point x="87" y="329" type="line"/>
      <point x="225" y="635" type="line"/>
      <point x="25" y="635" type="line"/>
      <point x="25" y="698" type="line"/>
      <point x="304" y="698" type="line"/>
      <point x="304" y="631" type="line"/>
    </contour>
  </outline>
</glyph>
<glyph name="peso" format="2">
  <advance width="657"/>
  <unicode hex="20B1"/>
  <outline>
    <contour>
      <point x="352" y="260" type="line" smooth="yes"/>
      <point x="423" y="260"/>
      <point x="441" y="327" type="qcurve"/>
      <point x="220" y="327" type="line"/>
      <point x="220" y="260" type="line"/>
    </contour>
    <contour>
      <point x="440" y="548" type="line"/>
      <point x="420" y="613"/>
      <point x="352" y="613" type="qcurve" smooth="yes"/>
      <point x="220" y="613" type="line"/>
      <point x="220" y="548" type="line"/>
    </contour>
    <contour>
      <point x="446" y="483" type="line"/>
      <point x="220" y="483" type="line"/>
      <point x="220" y="392" type="line"/>
      <point x="446" y="392" type="line"/>
    </contour>
    <contour>
      <point x="107" y="0" type="line"/>
      <point x="107" y="323" type="line"/>
      <point x="24" y="323" type="line"/>
      <point x="24" y="396" type="line"/>
      <point x="107" y="396" type="line"/>
      <point x="107" y="479" type="line"/>
      <point x="24" y="479" type="line"/>
      <point x="24" y="552" type="line"/>
      <point x="107" y="552" type="line"/>
      <point x="107" y="698" type="line"/>
      <point x="360" y="698" type="line" smooth="yes"/>
      <point x="509" y="698"/>
      <point x="546" y="552" type="qcurve"/>
      <point x="640" y="552" type="line"/>
      <point x="640" y="479" type="line"/>
      <point x="556" y="479" type="line"/>
      <point x="558" y="461"/>
      <point x="558" y="438" type="qcurve" smooth="yes"/>
      <point x="558" y="416"/>
      <point x="556" y="396" type="qcurve"/>
      <point x="640" y="396" type="line"/>
      <point x="640" y="323" type="line"/>
      <point x="544" y="323" type="line"/>
      <point x="506" y="175"/>
      <point x="360" y="175" type="qcurve" smooth="yes"/>
      <point x="220" y="175" type="line"/>
      <point x="220" y="0" type="line"/>
    </contour>
  </outline>
</glyph>
<glyph name="Omega" format="2">
  <advance width="716"/>
  <unicode hex="2126"/>
  <outline>
    <contour>
      <point x="417" y="0" type="line"/>
      <point x="417" y="139" type="line"/>
      <point x="465" y="158"/>
      <point x="539" y="271"/>
      <point x="539" y="336" type="qcurve" smooth="yes"/>
      <point x="539" y="429" type="line" smooth="yes"/>
      <point x="539" y="474"/>
      <point x="496" y="556"/>
      <point x="415" y="609"/>
      <point x="358" y="609" type="qcurve" smooth="yes"/>
      <point x="300" y="609"/>
      <point x="219" y="556"/>
      <point x="177" y="473"/>
      <point x="177" y="429" type="qcurve" smooth="yes"/>
      <point x="177" y="336" type="line" smooth="yes"/>
      <point x="177" y="271"/>
      <point x="251" y="158"/>
      <point x="299" y="139" type="qcurve"/>
      <point x="299" y="0" type="line"/>
      <point x="52" y="0" type="line"/>
      <point x="52" y="91" type="line"/>
      <point x="211" y="91" type="line"/>
      <point x="211" y="101" type="line"/>
      <point x="146" y="135"/>
      <point x="57" y="276"/>
      <point x="57" y="384" type="qcurve" smooth="yes"/>
      <point x="57" y="470"/>
      <point x="124" y="618"/>
      <point x="258" y="710"/>
      <point x="358" y="710" type="qcurve" smooth="yes"/>
      <point x="462" y="710"/>
      <point x="595" y="616"/>
      <point x="659" y="466"/>
      <point x="659" y="384" type="qcurve" smooth="yes"/>
      <point x="659" y="279"/>
      <point x="573" y="136"/>
      <point x="505" y="101" type="qcurve"/>
      <point x="505" y="91" type="line"/>
      <point x="664" y="91" type="line"/>
      <point x="664" y="0" type="line"/>
    </contour>
  </outline>
</glyph>
<glyph name="oneseventh" format="2">
  <advance width="812"/>
  <unicode hex="2150"/>
  <outline>
    <contour>
      <point x="234" y="329" type="line"/>
      <point x="155" y="329" type="line"/>
      <point x="155" y="628" type="line"/>
      <point x="75" y="588" type="line"/>
      <point x="75" y="660" type="line"/>
      <point x="150" y="698" type="line"/>
      <point x="234" y="698" type="line"/>
    </contour>
    <contour>
      <point x="186" y="0" type="line"/>
      <point x="97" y="0" type="line"/>
      <point x="602" y="698" type="line"/>
      <point x="690" y="698" type="line"/>
    </contour>
    <contour>
      <point x="652" y="0" type="line"/>
      <point x="568" y="0" type="line"/>
      <point x="706" y="306" type="line"/>
      <point x="506" y="306" type="line"/>
      <point x="506" y="369" type="line"/>
      <point x="785" y="369" type="line"/>
      <point x="785" y="302" type="line"/>
    </contour>
  </outline>
</glyph>
<glyph name="arrowupdn" format="2">
  <advance width="854"/>
  <unicode hex="2195"/>
  <outline>
    <contour>
      <point x="206" y="209" type="line"/>
      <point x="268" y="271" type="line"/>
      <point x="315" y="224" type="line"/>
      <point x="332" y="208"/>
      <point x="345" y="193" type="qcurve" smooth="yes"/>
      <point x="383" y="148" type="line"/>
      <point x="387" y="149" type="line"/>
      <point x="382" y="239" type="line"/>
      <point x="382" y="459" type="line"/>
      <point x="387" y="549" type="line"/>
      <point x="383" y="550" type="line"/>
      <point x="345" y="505" type="line" smooth="yes"/>
      <point x="332" y="490"/>
      <point x="315" y="474" type="qcurve"/>
      <point x="268" y="427" type="line"/>
      <point x="206" y="489" type="line"/>
      <point x="427" y="710" type="line"/>
      <point x="648" y="489" type="line"/>
      <point x="586" y="427" type="line"/>
      <point x="539" y="474" type="line"/>
      <point x="522" y="490"/>
      <point x="509" y="505" type="qcurve" smooth="yes"/>
      <point x="471" y="550" type="line"/>
      <point x="467" y="549" type="line"/>
      <point x="473" y="459" type="line"/>
      <point x="473" y="239" type="line"/>
      <point x="467" y="149" type="line"/>
      <point x="471" y="148" type="line"/>
      <point x="509" y="193" type="line" smooth="yes"/>
      <point x="522" y="208"/>
      <point x="539" y="224" type="qcurve"/>
      <point x="586" y="271" type="line"/>
      <point x="648" y="209" type="line"/>
      <point x="427" y="-12" type="line"/>
    </contour>
  </outline>
</glyph>
<glyph name="partialdiff" format="2">
  <advance width="589"/>
  <unicode hex="2202"/>
  <outline>
    <contour>
      <point x="293" y="75" type="qcurve" smooth="yes"/>
      <point x="351" y="75"/>
      <point x="419" y="145"/>
      <point x="419" y="214" type="qcurve" smooth="yes"/>
      <point x="419" y="278" type="line" smooth="yes"/>
      <point x="419" y="347"/>
      <point x="351" y="417"/>
      <point x="293" y="417" type="qcurve" smooth="yes"/>
      <point x="235" y="417"/>
      <point x="167" y="347"/>
      <point x="167" y="278" type="qcurve" smooth="yes"/>
      <point x="167" y="214" type="line" smooth="yes"/>
      <point x="167" y="145"/>
      <point x="235" y="75"/>
    </contour>
    <contour>
      <point x="295" y="-12" type="qcurve" smooth="yes"/>
      <point x="186" y="-12"/>
      <point x="52" y="126"/>
      <point x="52" y="250" type="qcurve" smooth="yes"/>
      <point x="52" y="360"/>
      <point x="162" y="504"/>
      <point x="262" y="504" type="qcurve" smooth="yes"/>
      <point x="350" y="504"/>
      <point x="399" y="431" type="qcurve"/>
      <point x="405" y="433" type="line"/>
      <point x="377" y="509"/>
      <point x="220" y="645"/>
      <point x="119" y="698" type="qcurve"/>
      <point x="284" y="698" type="line"/>
      <point x="383" y="639"/>
      <point x="448" y="549" type="qcurve" smooth="yes"/>
      <point x="534" y="432"/>
      <point x="534" y="271" type="qcurve" smooth="yes"/>
      <point x="534" y="171"/>
      <point x="473" y="46"/>
      <point x="365" y="-12"/>
    </contour>
  </outline>
</glyph>
<glyph name="rightTipUpArrow" format="2">
  <advance width="854"/>
  <unicode hex="2B0F"/>
  <outline>
    <contour>
      <point x="78" y="119" type="line"/>
      <point x="78" y="211" type="line"/>
      <point x="509" y="211" type="line"/>
      <point x="509" y="382" type="line"/>
      <point x="514" y="471" type="line"/>
      <point x="511" y="472" type="line"/>
      <point x="471" y="424" type="line"/>
      <point x="396" y="350" type="line"/>
      <point x="334" y="411" type="line"/>
      <point x="555" y="632" type="line"/>
      <point x="776" y="411" type="line"/>
      <point x="714" y="350" type="line"/>
      <point x="639" y="424" type="line"/>
      <point x="599" y="472" type="line"/>
      <point x="595" y="471" type="line"/>
      <point x="600" y="382" type="line"/>
      <point x="600" y="119" type="line"/>
    </contour>
  </outline>
</glyph>
<glyph name="ff" format="2">
  <advance width="634"/>
  <unicode hex="FB00"/>
  <outline>
    <contour>
      <point x="105" y="0" type="line"/>
      <point x="105" y="431" type="line"/>
      <point x="26" y="431" type="line"/>
      <point x="26" y="520" type="line"/>
      <point x="105" y="520" type="line"/>
      <point x="105" y="606" type="line" smooth="yes"/>
      <point x="105" y="669"/>
      <point x="171" y="740"/>
      <point x="237" y="740" type="qcurve" smooth="yes"/>
      <point x="323" y="740" type="line"/>
      <point x="323" y="651" type="line"/>
      <point x="214" y="651" type="line"/>
      <point x="214" y="520" type="line"/>
      <point x="399" y="520" type="line"/>
      <point x="399" y="606" type="line" smooth="yes"/>
      <point x="399" y="669"/>
      <point x="465" y="740"/>
      <point x="531" y="740" type="qcurve" smooth="yes"/>
      <point x="617" y="740" type="line"/>
      <point x="617" y="651" type="line"/>
      <point x="508" y="651" type="line"/>
      <point x="508" y="520" type="line"/>
      <point x="617" y="520" type="line"/>
      <point x="617" y="431" type="line"/>
      <point x="508" y="431" type="line"/>
      <point x="508" y="0" type="line"/>
      <point x="399" y="0" type="line"/>
      <point x="399" y="431" type="line"/>
      <point x="214" y="431" type="line"/>
      <point x="214" y="0" type="line"/>
    </contour>
  </outline>
</glyph>
<glyph name="ffl" format="2">
  <advance width="965"/>
  <unicode hex="FB04"/>
  <outline>
    <contour>
      <point x="105" y="0" type="line"/>
      <point x="105" y="431" type="line"/>
      <point x="26" y="431" type="line"/>
      <point x="26" y="520" type="line"/>
      <point x="105" y="520" type="line"/>
      <point x="105" y="606" type="line" smooth="yes"/>
      <point x="105" y="669"/>
      <point x="171" y="740"/>
      <point x="237" y="740" type="qcurve" smooth="yes"/>
      <point x="323" y="740" type="line"/>
      <point x="323" y="651" type="line"/>
      <point x="214" y="651" type="line"/>
      <point x="214" y="520" type="line"/>
      <point x="400" y="520" type="line"/>
      <point x="400" y="606" type="line" smooth="yes"/>
      <point x="400" y="669"/>
      <point x="466" y="740"/>
      <point x="532" y="740" type="qcurve" smooth="yes"/>
      <point x="822" y="740" type="line"/>
      <point x="822" y="89" type="line"/>
      <point x="894" y="89" type="line"/>
      <point x="894" y="0" type="line"/>
      <point x="824" y="0" type="line" smooth="yes"/>
      <point x="768" y="0"/>
      <point x="713" y="57"/>
      <point x="713" y="108" type="qcurve" smooth="yes"/>
      <point x="713" y="651" type="line"/>
      <point x="509" y="651" type="line"/>
      <point x="509" y="520" type="line"/>
      <point x="618" y="520" type="line"/>
      <point x="618" y="431" type="line"/>
      <point x="509" y="431" type="line"/>
      <point x="509" y="0" type="line"/>
      <point x="400" y="0" type="line"/>
      <point x="400" y="431" type="line"/>
      <point x="214" y="431" type="line"/>
      <point x="214" y="0" type="line"/>
    </contour>
  </outline>
</glyph>
<glyph name="four.sups" format="2">
  <advance width="346"/>
  <outline>
    <contour>
      <point x="198" y="-99" type="line"/>
      <point x="193" y="-99" type="line"/>
      <point x="84" y="-257" type="line"/>
      <point x="198" y="-257" type="line"/>
    </contour>
    <contour>
      <point x="198" y="-388" type="line"/>
      <point x="198" y="-317" type="line"/>
      <point x="19" y="-317" type="line"/>
      <point x="19" y="-251" type="line"/>
      <point x="176" y="-19" type="line"/>
      <point x="274" y="-19" type="line"/>
      <point x="274" y="-257" type="line"/>
      <point x="326" y="-257" type="line"/>
      <point x="326" y="-317" type="line"/>
      <point x="274" y="-317" type="line"/>
      <point x="274" y="-388" type="line"/>
    </contour>
  </outline>
</glyph>
<glyph name="nine.sups" format="2">
  <advance width="358"/>
  <outline>
    <contour>
      <point x="177" y="-198" type="qcurve" smooth="yes"/>
      <point x="242" y="-197"/>
      <point x="242" y="-139" type="qcurve" smooth="yes"/>
      <point x="242" y="-106"/>
      <point x="212" y="-73"/>
      <point x="177" y="-73" type="qcurve" smooth="yes"/>
      <point x="112" y="-73"/>
      <point x="112" y="-132" type="qcurve" smooth="yes"/>
      <point x="112" y="-165"/>
      <point x="142" y="-198"/>
    </contour>
    <contour>
      <point x="73" y="-388" type="line"/>
      <point x="145" y="-341"/>
      <point x="229" y="-256"/>
      <point x="241" y="-203" type="qcurve"/>
      <point x="236" y="-202" type="line"/>
      <point x="225" y="-224"/>
      <point x="185" y="-257"/>
      <point x="147" y="-257" type="qcurve" smooth="yes"/>
      <point x="96" y="-257"/>
      <point x="30" y="-195"/>
      <point x="30" y="-142" type="qcurve" smooth="yes"/>
      <point x="30" y="-85"/>
      <point x="110" y="-13"/>
      <point x="177" y="-13" type="qcurve" smooth="yes"/>
      <point x="248" y="-13"/>
      <point x="324" y="-92"/>
      <point x="324" y="-159" type="qcurve" smooth="yes"/>
      <point x="324" y="-214"/>
      <point x="279" y="-302"/>
      <point x="214" y="-368"/>
      <point x="182" y="-388" type="qcurve"/>
    </contour>
  </outline>
</glyph>
<glyph name="one.subs" format="2">
  <advance width="323"/>
  <outline>
    <contour>
      <point x="234" y="470" type="line"/>
      <point x="155" y="470" type="line"/>
      <point x="155" y="769" type="line"/>
      <point x="75" y="729" type="line"/>
      <point x="75" y="801" type="line"/>
      <point x="150" y="839" type="line"/>
      <point x="234" y="839" type="line"/>
    </contour>
  </outline>
</glyph>
<glyph name="one.sups" format="2">
  <advance width="323"/>
  <outline>
    <contour>
      <point x="234" y="-388" type="line"/>
      <point x="155" y="-388" type="line"/>
      <point x="155" y="-89" type="line"/>
      <point x="75" y="-129" type="line"/>
      <point x="75" y="-57" type="line"/>
      <point x="150" y="-19" type="line"/>
      <point x="234" y="-19" type="line"/>
    </contour>
  </outline>
</glyph>
<glyph name="seven.sups" format="2">
  <advance width="331"/>
  <outline>
    <contour>
      <point x="171" y="-388" type="line"/>
      <point x="87" y="-388" type="line"/>
      <point x="225" y="-82" type="line"/>
      <point x="25" y="-82" type="line"/>
      <point x="25" y="-19" type="line"/>
      <point x="304" y="-19" type="line"/>
      <point x="304" y="-86" type="line"/>
    </contour>
  </outline>
</glyph>
<glyph name="three.sups" format="2">
  <advance width="345"/>
  <outline>
    <contour>
      <point x="159" y="-394" type="qcurve" smooth="yes"/>
      <point x="100" y="-394"/>
      <point x="33" y="-353"/>
      <point x="15" y="-324" type="qcurve"/>
      <point x="74" y="-280" type="line"/>
      <point x="88" y="-304"/>
      <point x="127" y="-332"/>
      <point x="159" y="-332" type="qcurve"/>
      <point x="225" y="-328"/>
      <point x="225" y="-280" type="qcurve" smooth="yes"/>
      <point x="225" y="-254"/>
      <point x="192" y="-230"/>
      <point x="154" y="-230" type="qcurve" smooth="yes"/>
      <point x="115" y="-230" type="line"/>
      <point x="115" y="-166" type="line"/>
      <point x="153" y="-166" type="line" smooth="yes"/>
      <point x="186" y="-166"/>
      <point x="218" y="-142"/>
      <point x="218" y="-125" type="qcurve" smooth="yes"/>
      <point x="218" y="-103"/>
      <point x="191" y="-75"/>
      <point x="161" y="-75" type="qcurve" smooth="yes"/>
      <point x="109" y="-75"/>
      <point x="79" y="-120" type="qcurve"/>
      <point x="28" y="-75" type="line"/>
      <point x="73" y="-13"/>
      <point x="164" y="-13" type="qcurve" smooth="yes"/>
      <point x="227" y="-13"/>
      <point x="302" y="-66"/>
      <point x="302" y="-111" type="qcurve" smooth="yes"/>
      <point x="302" y="-146"/>
      <point x="258" y="-189"/>
      <point x="225" y="-194" type="qcurve"/>
      <point x="225" y="-197" type="line"/>
      <point x="261" y="-203"/>
      <point x="308" y="-247"/>
      <point x="308" y="-285" type="qcurve" smooth="yes"/>
      <point x="308" y="-335"/>
      <point x="227" y="-394"/>
    </contour>
  </outline>
</glyph>
<glyph name="two.subs" format="2">
  <advance width="346"/>
  <outline>
    <contour>
      <point x="36" y="470" type="line"/>
      <point x="36" y="540" type="line"/>
      <point x="157" y="636" type="line" smooth="yes"/>
      <point x="190" y="662"/>
      <point x="221" y="702"/>
      <point x="221" y="727" type="qcurve" smooth="yes"/>
      <point x="221" y="779"/>
      <point x="165" y="779" type="qcurve" smooth="yes"/>
      <point x="135" y="779"/>
      <point x="105" y="750"/>
      <point x="97" y="726" type="qcurve"/>
      <point x="28" y="752" type="line"/>
      <point x="60" y="845"/>
      <point x="172" y="845" type="qcurve" smooth="yes"/>
      <point x="236" y="845"/>
      <point x="306" y="783"/>
      <point x="306" y="734" type="qcurve" smooth="yes"/>
      <point x="306" y="686"/>
      <point x="247" y="621"/>
      <point x="163" y="563"/>
      <point x="122" y="534" type="qcurve"/>
      <point x="315" y="534" type="line"/>
      <point x="315" y="470" type="line"/>
    </contour>
  </outline>
</glyph>
